<svg xmlns="http://www.w3.org/2000/svg" width="509.318" height="509.331" viewBox="0 0 509.318 509.331">
  <g id="Group_18796" data-name="Group 18796" transform="translate(254.381 -1983.268)">
    <path id="Path_326" data-name="Path 326" d="M1816.57,1633.85a3.4,3.4,0,1,0,3.4,3.4,3.4,3.4,0,0,0-3.4-3.4Z" transform="translate(-1806.989 349.418)" fill="#fff" opacity="0.1"/>
    <path id="Path_327" data-name="Path 327" d="M1826.76,1633.85a3.4,3.4,0,1,0,3.4,3.4,3.4,3.4,0,0,0-3.4-3.4Z" transform="translate(-1798.562 349.418)" fill="#fff" opacity="0.1"/>
    <path id="Path_328" data-name="Path 328" d="M1833.96,1634.82a3.4,3.4,0,1,0,6.383,1.64,3.089,3.089,0,0,0-.042-.472Q1837.15,1635.37,1833.96,1634.82Z" transform="translate(-1790.132 350.216)" fill="#fff" opacity="0.1"/>
    <path id="Path_329" data-name="Path 329" d="M1847.6,1637.9c-1.111-.3-2.228-.583-3.339-.866a3.38,3.38,0,0,0,3.339.866Z" transform="translate(-1781.25 352.048)" fill="#fff" opacity="0.1"/>
    <path id="Path_336" data-name="Path 336" d="M1816.57,1642.72a3.4,3.4,0,1,0,3.4,3.4,3.4,3.4,0,0,0-3.4-3.4Z" transform="translate(-1806.989 356.76)" fill="#fff" opacity="0.1"/>
    <path id="Path_337" data-name="Path 337" d="M1826.76,1642.72a3.4,3.4,0,1,0,3.4,3.4,3.4,3.4,0,0,0-3.4-3.4Z" transform="translate(-1798.562 356.76)" fill="#fff" opacity="0.1"/>
    <path id="Path_338" data-name="Path 338" d="M1836.94,1642.72a3.4,3.4,0,1,0,3.4,3.4,3.4,3.4,0,0,0-3.4-3.4Z" transform="translate(-1790.132 356.76)" fill="#fff" opacity="0.1"/>
    <path id="Path_339" data-name="Path 339" d="M1847.12,1642.72a3.4,3.4,0,1,0,3.4,3.4,3.4,3.4,0,0,0-3.4-3.4Z" transform="translate(-1781.702 356.76)" fill="#fff" opacity="0.1"/>
    <path id="Path_340" data-name="Path 340" d="M1857.3,1642.72a3.4,3.4,0,1,0,3.4,3.4,3.4,3.4,0,0,0-3.4-3.4Z" transform="translate(-1773.274 356.76)" fill="#fff" opacity="0.1"/>
    <path id="Path_341" data-name="Path 341" d="M1867.48,1648.7a3.4,3.4,0,0,0,3.2-2.268q-3.087-1.4-6.218-2.713a3.4,3.4,0,0,0,3.014,4.981Z" transform="translate(-1764.844 357.586)" fill="#fff" opacity="0.1"/>
    <path id="Path_350" data-name="Path 350" d="M1816.57,1651.59a3.4,3.4,0,1,0,3.4,3.4,3.4,3.4,0,0,0-3.4-3.4Z" transform="translate(-1806.989 364.102)" fill="#fff" opacity="0.1"/>
    <path id="Path_351" data-name="Path 351" d="M1826.76,1651.59a3.4,3.4,0,1,0,3.4,3.4,3.4,3.4,0,0,0-3.4-3.4Z" transform="translate(-1798.562 364.102)" fill="#fff" opacity="0.1"/>
    <path id="Path_352" data-name="Path 352" d="M1836.94,1651.59a3.4,3.4,0,1,0,3.4,3.4,3.4,3.4,0,0,0-3.4-3.4Z" transform="translate(-1790.132 364.102)" fill="#fff" opacity="0.1"/>
    <path id="Path_353" data-name="Path 353" d="M1847.12,1651.59a3.4,3.4,0,1,0,3.4,3.4,3.4,3.4,0,0,0-3.4-3.4Z" transform="translate(-1781.702 364.102)" fill="#fff" opacity="0.1"/>
    <path id="Path_354" data-name="Path 354" d="M1857.3,1651.59a3.4,3.4,0,1,0,3.4,3.4,3.4,3.4,0,0,0-3.4-3.4Z" transform="translate(-1773.274 364.102)" fill="#fff" opacity="0.1"/>
    <path id="Path_355" data-name="Path 355" d="M1867.48,1651.59a3.4,3.4,0,1,0,2.407.994,3.4,3.4,0,0,0-2.407-.994Z" transform="translate(-1764.844 364.102)" fill="#fff" opacity="0.1"/>
    <path id="Path_356" data-name="Path 356" d="M1877.67,1651.59a3.4,3.4,0,1,0,3.4,3.4,3.4,3.4,0,0,0-3.4-3.4Z" transform="translate(-1756.413 364.102)" fill="#fff" opacity="0.1"/>
    <path id="Path_357" data-name="Path 357" d="M1887.37,1656.08q-1.33-.868-2.681-1.718a3.4,3.4,0,0,0,2.681,1.718Z" transform="translate(-1747.786 366.398)" fill="#fff" opacity="0.1"/>
    <path id="Path_367" data-name="Path 367" d="M1816.57,1660.46a3.4,3.4,0,1,0,3.4,3.4,3.4,3.4,0,0,0-3.4-3.4Z" transform="translate(-1806.989 371.444)" fill="#fff" opacity="0.1"/>
    <path id="Path_368" data-name="Path 368" d="M1826.76,1660.46a3.4,3.4,0,1,0,3.4,3.4,3.4,3.4,0,0,0-3.4-3.4Z" transform="translate(-1798.562 371.444)" fill="#fff" opacity="0.1"/>
    <path id="Path_369" data-name="Path 369" d="M1836.94,1660.46a3.4,3.4,0,1,0,3.4,3.4,3.4,3.4,0,0,0-3.4-3.4Z" transform="translate(-1790.132 371.444)" fill="#fff" opacity="0.1"/>
    <path id="Path_370" data-name="Path 370" d="M1847.12,1660.46a3.4,3.4,0,1,0,3.4,3.4,3.4,3.4,0,0,0-3.4-3.4Z" transform="translate(-1781.702 371.444)" fill="#fff" opacity="0.1"/>
    <path id="Path_371" data-name="Path 371" d="M1857.3,1660.46a3.4,3.4,0,1,0,3.4,3.4,3.4,3.4,0,0,0-3.4-3.4Z" transform="translate(-1773.274 371.444)" fill="#fff" opacity="0.1"/>
    <path id="Path_372" data-name="Path 372" d="M1867.48,1660.46a3.4,3.4,0,1,0,2.407.994,3.4,3.4,0,0,0-2.407-.994Z" transform="translate(-1764.844 371.444)" fill="#fff" opacity="0.1"/>
    <path id="Path_373" data-name="Path 373" d="M1877.67,1660.46a3.4,3.4,0,1,0,3.4,3.4,3.4,3.4,0,0,0-3.4-3.4Z" transform="translate(-1756.413 371.444)" fill="#fff" opacity="0.1"/>
    <path id="Path_374" data-name="Path 374" d="M1887.85,1660.46a3.4,3.4,0,1,0,3.4,3.4,3.4,3.4,0,0,0-3.4-3.4Z" transform="translate(-1747.985 371.444)" fill="#fff" opacity="0.1"/>
    <path id="Path_375" data-name="Path 375" d="M1898.03,1666.46a3.367,3.367,0,0,0,2.285-.888q-2.605-2.1-5.275-4.133a3.4,3.4,0,0,0,2.99,5.021Z" transform="translate(-1739.556 372.251)" fill="#fff" opacity="0.1"/>
    <path id="Path_386" data-name="Path 386" d="M1816.57,1669.33a3.4,3.4,0,1,0,3.4,3.4,3.4,3.4,0,0,0-3.4-3.4Z" transform="translate(-1806.989 378.784)" fill="#fff" opacity="0.1"/>
    <path id="Path_387" data-name="Path 387" d="M1826.76,1669.33a3.4,3.4,0,1,0,3.4,3.4,3.4,3.4,0,0,0-3.4-3.4Z" transform="translate(-1798.562 378.784)" fill="#fff" opacity="0.1"/>
    <path id="Path_388" data-name="Path 388" d="M1836.94,1669.33a3.4,3.4,0,1,0,3.4,3.4,3.4,3.4,0,0,0-3.4-3.4Z" transform="translate(-1790.132 378.784)" fill="#fff" opacity="0.1"/>
    <path id="Path_389" data-name="Path 389" d="M1847.12,1669.33a3.4,3.4,0,1,0,3.4,3.4,3.4,3.4,0,0,0-3.4-3.4Z" transform="translate(-1781.702 378.784)" fill="#fff" opacity="0.1"/>
    <path id="Path_390" data-name="Path 390" d="M1857.3,1669.33a3.4,3.4,0,1,0,3.4,3.4,3.4,3.4,0,0,0-3.4-3.4Z" transform="translate(-1773.274 378.784)" fill="#fff" opacity="0.1"/>
    <path id="Path_391" data-name="Path 391" d="M1867.48,1669.33a3.4,3.4,0,1,0,2.407.994,3.4,3.4,0,0,0-2.407-.994Z" transform="translate(-1764.844 378.784)" fill="#fff" opacity="0.1"/>
    <path id="Path_392" data-name="Path 392" d="M1877.67,1669.33a3.4,3.4,0,1,0,3.4,3.4,3.4,3.4,0,0,0-3.4-3.4Z" transform="translate(-1756.413 378.784)" fill="#fff" opacity="0.1"/>
    <path id="Path_393" data-name="Path 393" d="M1887.85,1669.33a3.4,3.4,0,1,0,3.4,3.4,3.4,3.4,0,0,0-3.4-3.4Z" transform="translate(-1747.985 378.784)" fill="#fff" opacity="0.1"/>
    <path id="Path_394" data-name="Path 394" d="M1898.03,1669.33a3.4,3.4,0,1,0,3.4,3.4,3.4,3.4,0,0,0-3.4-3.4Z" transform="translate(-1739.556 378.784)" fill="#fff" opacity="0.1"/>
    <path id="Path_395" data-name="Path 395" d="M1908.21,1675.48a3.408,3.408,0,0,0,2.109-.735q-2.407-2.35-4.875-4.639a3.358,3.358,0,0,0-.638,1.972,3.4,3.4,0,0,0,3.4,3.4Z" transform="translate(-1731.127 379.432)" fill="#fff" opacity="0.1"/>
    <path id="Path_407" data-name="Path 407" d="M1816.57,1678.2a3.4,3.4,0,1,0,3.4,3.4,3.4,3.4,0,0,0-3.4-3.4Z" transform="translate(-1806.989 386.126)" fill="#fff" opacity="0.1"/>
    <path id="Path_408" data-name="Path 408" d="M1826.76,1678.2a3.4,3.4,0,1,0,3.4,3.4,3.4,3.4,0,0,0-3.4-3.4Z" transform="translate(-1798.562 386.126)" fill="#fff" opacity="0.1"/>
    <path id="Path_409" data-name="Path 409" d="M1836.94,1678.2a3.4,3.4,0,1,0,3.4,3.4,3.4,3.4,0,0,0-3.4-3.4Z" transform="translate(-1790.132 386.126)" fill="#fff" opacity="0.1"/>
    <path id="Path_410" data-name="Path 410" d="M1847.12,1678.2a3.4,3.4,0,1,0,3.4,3.4,3.4,3.4,0,0,0-3.4-3.4Z" transform="translate(-1781.702 386.126)" fill="#fff" opacity="0.1"/>
    <path id="Path_411" data-name="Path 411" d="M1857.3,1678.2a3.4,3.4,0,1,0,3.4,3.4,3.4,3.4,0,0,0-3.4-3.4Z" transform="translate(-1773.274 386.126)" fill="#fff" opacity="0.1"/>
    <path id="Path_412" data-name="Path 412" d="M1867.48,1678.2a3.4,3.4,0,1,0,2.407.994,3.4,3.4,0,0,0-2.407-.994Z" transform="translate(-1764.844 386.126)" fill="#fff" opacity="0.1"/>
    <path id="Path_413" data-name="Path 413" d="M1877.67,1678.2a3.4,3.4,0,1,0,3.4,3.4,3.4,3.4,0,0,0-3.4-3.4Z" transform="translate(-1756.413 386.126)" fill="#fff" opacity="0.1"/>
    <path id="Path_414" data-name="Path 414" d="M1887.85,1678.2a3.4,3.4,0,1,0,3.4,3.4,3.4,3.4,0,0,0-3.4-3.4Z" transform="translate(-1747.985 386.126)" fill="#fff" opacity="0.1"/>
    <path id="Path_415" data-name="Path 415" d="M1898.03,1678.2a3.4,3.4,0,1,0,3.4,3.4,3.4,3.4,0,0,0-3.4-3.4Z" transform="translate(-1739.556 386.126)" fill="#fff" opacity="0.1"/>
    <path id="Path_416" data-name="Path 416" d="M1908.21,1678.2a3.4,3.4,0,1,0,3.4,3.4,3.4,3.4,0,0,0-3.4-3.4Z" transform="translate(-1731.127 386.126)" fill="#fff" opacity="0.1"/>
    <path id="Path_417" data-name="Path 417" d="M1917.66,1683.26q-1.316-1.544-2.661-3.062A3.4,3.4,0,0,0,1917.66,1683.26Z" transform="translate(-1722.692 387.784)" fill="#fff" opacity="0.1"/>
    <path id="Path_429" data-name="Path 429" d="M1816.57,1687.06a3.4,3.4,0,1,0,3.4,3.4,3.4,3.4,0,0,0-3.4-3.4Z" transform="translate(-1806.989 393.468)" fill="#fff" opacity="0.1"/>
    <path id="Path_430" data-name="Path 430" d="M1826.76,1687.06a3.4,3.4,0,1,0,3.4,3.4,3.4,3.4,0,0,0-3.4-3.4Z" transform="translate(-1798.562 393.468)" fill="#fff" opacity="0.1"/>
    <path id="Path_431" data-name="Path 431" d="M1836.94,1687.06a3.4,3.4,0,1,0,3.4,3.4,3.4,3.4,0,0,0-3.4-3.4Z" transform="translate(-1790.132 393.468)" fill="#fff" opacity="0.1"/>
    <path id="Path_432" data-name="Path 432" d="M1847.12,1687.06a3.4,3.4,0,1,0,3.4,3.4,3.4,3.4,0,0,0-3.4-3.4Z" transform="translate(-1781.702 393.468)" fill="#fff" opacity="0.1"/>
    <path id="Path_433" data-name="Path 433" d="M1857.3,1687.06a3.4,3.4,0,1,0,3.4,3.4,3.4,3.4,0,0,0-3.4-3.4Z" transform="translate(-1773.274 393.468)" fill="#fff" opacity="0.1"/>
    <path id="Path_434" data-name="Path 434" d="M1867.48,1687.06a3.4,3.4,0,1,0,2.407.994,3.4,3.4,0,0,0-2.407-.994Z" transform="translate(-1764.844 393.468)" fill="#fff" opacity="0.1"/>
    <path id="Path_435" data-name="Path 435" d="M1877.67,1687.06a3.4,3.4,0,1,0,3.4,3.4,3.4,3.4,0,0,0-3.4-3.4Z" transform="translate(-1756.413 393.468)" fill="#fff" opacity="0.1"/>
    <path id="Path_436" data-name="Path 436" d="M1887.85,1687.06a3.4,3.4,0,1,0,3.4,3.4,3.4,3.4,0,0,0-3.4-3.4Z" transform="translate(-1747.985 393.468)" fill="#fff" opacity="0.1"/>
    <path id="Path_437" data-name="Path 437" d="M1898.03,1687.06a3.4,3.4,0,1,0,3.4,3.4,3.4,3.4,0,0,0-3.4-3.4Z" transform="translate(-1739.556 393.468)" fill="#fff" opacity="0.1"/>
    <path id="Path_438" data-name="Path 438" d="M1908.21,1687.06a3.4,3.4,0,1,0,3.4,3.4,3.4,3.4,0,0,0-3.4-3.4Z" transform="translate(-1731.127 393.468)" fill="#fff" opacity="0.1"/>
    <path id="Path_439" data-name="Path 439" d="M1918.4,1687.06a3.4,3.4,0,1,0,3.4,3.4,3.4,3.4,0,0,0-3.4-3.4Z" transform="translate(-1722.697 393.468)" fill="#fff" opacity="0.1"/>
    <path id="Path_452" data-name="Path 452" d="M1816.57,1695.93a3.4,3.4,0,1,0,3.4,3.4,3.4,3.4,0,0,0-3.4-3.4Z" transform="translate(-1806.989 400.81)" fill="#fff" opacity="0.1"/>
    <path id="Path_453" data-name="Path 453" d="M1826.76,1695.93a3.4,3.4,0,1,0,3.4,3.4,3.4,3.4,0,0,0-3.4-3.4Z" transform="translate(-1798.562 400.81)" fill="#fff" opacity="0.1"/>
    <path id="Path_454" data-name="Path 454" d="M1836.94,1695.93a3.4,3.4,0,1,0,3.4,3.4,3.4,3.4,0,0,0-3.4-3.4Z" transform="translate(-1790.132 400.81)" fill="#fff" opacity="0.1"/>
    <path id="Path_455" data-name="Path 455" d="M1847.12,1695.93a3.4,3.4,0,1,0,3.4,3.4,3.4,3.4,0,0,0-3.4-3.4Z" transform="translate(-1781.702 400.81)" fill="#fff" opacity="0.1"/>
    <path id="Path_456" data-name="Path 456" d="M1857.3,1695.93a3.4,3.4,0,1,0,3.4,3.4,3.4,3.4,0,0,0-3.4-3.4Z" transform="translate(-1773.274 400.81)" fill="#fff" opacity="0.1"/>
    <path id="Path_457" data-name="Path 457" d="M1867.48,1695.93a3.4,3.4,0,1,0,2.407.994,3.4,3.4,0,0,0-2.407-.994Z" transform="translate(-1764.844 400.81)" fill="#fff" opacity="0.1"/>
    <path id="Path_458" data-name="Path 458" d="M1877.67,1695.93a3.4,3.4,0,1,0,3.4,3.4,3.4,3.4,0,0,0-3.4-3.4Z" transform="translate(-1756.413 400.81)" fill="#fff" opacity="0.1"/>
    <path id="Path_459" data-name="Path 459" d="M1887.85,1695.93a3.4,3.4,0,1,0,3.4,3.4,3.4,3.4,0,0,0-3.4-3.4Z" transform="translate(-1747.985 400.81)" fill="#fff" opacity="0.1"/>
    <path id="Path_460" data-name="Path 460" d="M1898.03,1695.93a3.4,3.4,0,1,0,3.4,3.4,3.4,3.4,0,0,0-3.4-3.4Z" transform="translate(-1739.556 400.81)" fill="#fff" opacity="0.1"/>
    <path id="Path_461" data-name="Path 461" d="M1908.21,1695.93a3.4,3.4,0,1,0,3.4,3.4,3.4,3.4,0,0,0-3.4-3.4Z" transform="translate(-1731.127 400.81)" fill="#fff" opacity="0.1"/>
    <path id="Path_462" data-name="Path 462" d="M1918.4,1695.93a3.4,3.4,0,1,0,3.4,3.4,3.4,3.4,0,0,0-3.4-3.4Z" transform="translate(-1722.697 400.81)" fill="#fff" opacity="0.1"/>
    <path id="Path_463" data-name="Path 463" d="M1928.58,1702.74a3.4,3.4,0,0,0,3.084-1.972q-1.525-2.429-3.1-4.831a3.4,3.4,0,0,0,.02,6.8Z" transform="translate(-1714.268 400.81)" fill="#fff" opacity="0.1"/>
    <path id="Path_474" data-name="Path 474" d="M1835.96,1704.8a3.384,3.384,0,0,0-1.256.239q2.172.79,4.3,1.66A3.394,3.394,0,0,0,1835.96,1704.8Z" transform="translate(-1789.158 408.152)" fill="#fff" opacity="0.1"/>
    <path id="Path_475" data-name="Path 475" d="M1847.12,1704.8a3.4,3.4,0,1,0,3.4,3.4,3.4,3.4,0,0,0-3.4-3.4Z" transform="translate(-1781.702 408.152)" fill="#fff" opacity="0.1"/>
    <path id="Path_476" data-name="Path 476" d="M1857.3,1704.8a3.4,3.4,0,1,0,3.4,3.4,3.4,3.4,0,0,0-3.4-3.4Z" transform="translate(-1773.274 408.152)" fill="#fff" opacity="0.1"/>
    <path id="Path_477" data-name="Path 477" d="M1867.48,1704.8a3.4,3.4,0,1,0,2.407.994,3.4,3.4,0,0,0-2.407-.994Z" transform="translate(-1764.844 408.152)" fill="#fff" opacity="0.1"/>
    <path id="Path_478" data-name="Path 478" d="M1877.67,1704.8a3.4,3.4,0,1,0,3.4,3.4,3.4,3.4,0,0,0-3.4-3.4Z" transform="translate(-1756.413 408.152)" fill="#fff" opacity="0.1"/>
    <path id="Path_479" data-name="Path 479" d="M1887.85,1704.8a3.4,3.4,0,1,0,3.4,3.4,3.4,3.4,0,0,0-3.4-3.4Z" transform="translate(-1747.985 408.152)" fill="#fff" opacity="0.1"/>
    <path id="Path_480" data-name="Path 480" d="M1898.03,1704.8a3.4,3.4,0,1,0,3.4,3.4,3.4,3.4,0,0,0-3.4-3.4Z" transform="translate(-1739.556 408.152)" fill="#fff" opacity="0.1"/>
    <path id="Path_481" data-name="Path 481" d="M1908.21,1704.8a3.4,3.4,0,1,0,3.4,3.4,3.4,3.4,0,0,0-3.4-3.4Z" transform="translate(-1731.127 408.152)" fill="#fff" opacity="0.1"/>
    <path id="Path_482" data-name="Path 482" d="M1918.4,1704.8a3.4,3.4,0,1,0,3.4,3.4,3.4,3.4,0,0,0-3.4-3.4Z" transform="translate(-1722.697 408.152)" fill="#fff" opacity="0.1"/>
    <path id="Path_483" data-name="Path 483" d="M1928.58,1704.8a3.4,3.4,0,1,0,3.4,3.4,3.4,3.4,0,0,0-3.4-3.4Z" transform="translate(-1714.268 408.152)" fill="#fff" opacity="0.1"/>
    <path id="Path_493" data-name="Path 493" d="M1857.3,1713.67a3.406,3.406,0,0,0-3.4,3.29q2.165,1.659,4.257,3.4a3.4,3.4,0,0,0-.857-6.692Z" transform="translate(-1773.271 415.493)" fill="#fff" opacity="0.1"/>
    <path id="Path_494" data-name="Path 494" d="M1867.48,1713.67a3.4,3.4,0,1,0,2.407.994,3.4,3.4,0,0,0-2.407-.994Z" transform="translate(-1764.844 415.493)" fill="#fff" opacity="0.1"/>
    <path id="Path_495" data-name="Path 495" d="M1877.67,1713.67a3.4,3.4,0,1,0,3.4,3.4,3.4,3.4,0,0,0-3.4-3.4Z" transform="translate(-1756.413 415.493)" fill="#fff" opacity="0.1"/>
    <path id="Path_496" data-name="Path 496" d="M1887.85,1713.67a3.4,3.4,0,1,0,3.4,3.4,3.4,3.4,0,0,0-3.4-3.4Z" transform="translate(-1747.985 415.493)" fill="#fff" opacity="0.1"/>
    <path id="Path_497" data-name="Path 497" d="M1898.03,1713.67a3.4,3.4,0,1,0,3.4,3.4,3.4,3.4,0,0,0-3.4-3.4Z" transform="translate(-1739.556 415.493)" fill="#fff" opacity="0.1"/>
    <path id="Path_498" data-name="Path 498" d="M1908.21,1713.67a3.4,3.4,0,1,0,3.4,3.4,3.4,3.4,0,0,0-3.4-3.4Z" transform="translate(-1731.127 415.493)" fill="#fff" opacity="0.1"/>
    <path id="Path_499" data-name="Path 499" d="M1918.4,1713.67a3.4,3.4,0,1,0,3.4,3.4,3.4,3.4,0,0,0-3.4-3.4Z" transform="translate(-1722.697 415.493)" fill="#fff" opacity="0.1"/>
    <path id="Path_500" data-name="Path 500" d="M1928.58,1713.67a3.4,3.4,0,1,0,3.4,3.4,3.4,3.4,0,0,0-3.4-3.4Z" transform="translate(-1714.268 415.493)" fill="#fff" opacity="0.1"/>
    <path id="Path_501" data-name="Path 501" d="M1938.76,1720.46a3.385,3.385,0,0,0,2.175-.792q-1.3-3-2.687-5.971a3.4,3.4,0,0,0,.512,6.763Z" transform="translate(-1705.84 415.511)" fill="#fff" opacity="0.1"/>
    <path id="Path_510" data-name="Path 510" d="M1867.48,1722.54a3.4,3.4,0,0,0-3.135,4.725,3.443,3.443,0,0,0,1.363,1.578,3.4,3.4,0,1,0,1.771-6.3Z" transform="translate(-1764.844 422.835)" fill="#fff" opacity="0.1"/>
    <path id="Path_511" data-name="Path 511" d="M1877.67,1722.54a3.4,3.4,0,1,0,3.4,3.4,3.4,3.4,0,0,0-3.4-3.4Z" transform="translate(-1756.413 422.835)" fill="#fff" opacity="0.1"/>
    <path id="Path_512" data-name="Path 512" d="M1887.85,1722.54a3.4,3.4,0,1,0,3.4,3.4,3.4,3.4,0,0,0-3.4-3.4Z" transform="translate(-1747.985 422.835)" fill="#fff" opacity="0.1"/>
    <path id="Path_513" data-name="Path 513" d="M1898.03,1722.54a3.4,3.4,0,1,0,3.4,3.4,3.4,3.4,0,0,0-3.4-3.4Z" transform="translate(-1739.556 422.835)" fill="#fff" opacity="0.1"/>
    <path id="Path_514" data-name="Path 514" d="M1908.21,1722.54a3.4,3.4,0,1,0,3.4,3.4,3.4,3.4,0,0,0-3.4-3.4Z" transform="translate(-1731.127 422.835)" fill="#fff" opacity="0.1"/>
    <path id="Path_515" data-name="Path 515" d="M1918.4,1722.54a3.4,3.4,0,1,0,3.4,3.4,3.4,3.4,0,0,0-3.4-3.4Z" transform="translate(-1722.697 422.835)" fill="#fff" opacity="0.1"/>
    <path id="Path_516" data-name="Path 516" d="M1928.58,1722.54a3.4,3.4,0,1,0,3.4,3.4,3.4,3.4,0,0,0-3.4-3.4Z" transform="translate(-1714.268 422.835)" fill="#fff" opacity="0.1"/>
    <path id="Path_517" data-name="Path 517" d="M1938.76,1722.54a3.4,3.4,0,1,0,3.4,3.4,3.4,3.4,0,0,0-3.4-3.4Z" transform="translate(-1705.84 422.835)" fill="#fff" opacity="0.1"/>
    <path id="Path_525" data-name="Path 525" d="M1877.67,1731.41a3.4,3.4,0,1,0,3.4,3.4,3.4,3.4,0,0,0-3.4-3.4Z" transform="translate(-1756.413 430.176)" fill="#fff" opacity="0.1"/>
    <path id="Path_526" data-name="Path 526" d="M1887.85,1731.41a3.4,3.4,0,1,0,3.4,3.4,3.4,3.4,0,0,0-3.4-3.4Z" transform="translate(-1747.985 430.176)" fill="#fff" opacity="0.1"/>
    <path id="Path_527" data-name="Path 527" d="M1898.03,1731.41a3.4,3.4,0,1,0,3.4,3.4,3.4,3.4,0,0,0-3.4-3.4Z" transform="translate(-1739.556 430.176)" fill="#fff" opacity="0.1"/>
    <path id="Path_528" data-name="Path 528" d="M1908.21,1731.41a3.4,3.4,0,1,0,3.4,3.4,3.4,3.4,0,0,0-3.4-3.4Z" transform="translate(-1731.127 430.176)" fill="#fff" opacity="0.1"/>
    <path id="Path_529" data-name="Path 529" d="M1918.4,1731.41a3.4,3.4,0,1,0,3.4,3.4,3.4,3.4,0,0,0-3.4-3.4Z" transform="translate(-1722.697 430.176)" fill="#fff" opacity="0.1"/>
    <path id="Path_530" data-name="Path 530" d="M1928.58,1731.41a3.4,3.4,0,1,0,3.4,3.4,3.4,3.4,0,0,0-3.4-3.4Z" transform="translate(-1714.268 430.176)" fill="#fff" opacity="0.1"/>
    <path id="Path_531" data-name="Path 531" d="M1938.76,1731.41a3.4,3.4,0,1,0,3.4,3.4,3.4,3.4,0,0,0-3.4-3.4Z" transform="translate(-1705.84 430.176)" fill="#fff" opacity="0.1"/>
    <path id="Path_540" data-name="Path 540" d="M1877.25,1740.28a3.39,3.39,0,0,0-2.481,1.078q1.388,2.824,2.651,5.719a3.4,3.4,0,1,0-.17-6.8Z" transform="translate(-1755.996 437.517)" fill="#fff" opacity="0.1"/>
    <path id="Path_541" data-name="Path 541" d="M1887.85,1740.28a3.4,3.4,0,1,0,3.4,3.4,3.4,3.4,0,0,0-3.4-3.4Z" transform="translate(-1747.985 437.517)" fill="#fff" opacity="0.1"/>
    <path id="Path_542" data-name="Path 542" d="M1898.03,1740.28a3.4,3.4,0,1,0,3.4,3.4,3.4,3.4,0,0,0-3.4-3.4Z" transform="translate(-1739.556 437.517)" fill="#fff" opacity="0.1"/>
    <path id="Path_543" data-name="Path 543" d="M1908.21,1740.28a3.4,3.4,0,1,0,3.4,3.4A3.4,3.4,0,0,0,1908.21,1740.28Z" transform="translate(-1731.127 437.517)" fill="#fff" opacity="0.1"/>
    <path id="Path_544" data-name="Path 544" d="M1918.4,1740.28a3.4,3.4,0,1,0,3.4,3.4A3.4,3.4,0,0,0,1918.4,1740.28Z" transform="translate(-1722.697 437.517)" fill="#fff" opacity="0.1"/>
    <path id="Path_545" data-name="Path 545" d="M1928.58,1740.28a3.4,3.4,0,1,0,3.4,3.4A3.4,3.4,0,0,0,1928.58,1740.28Z" transform="translate(-1714.268 437.517)" fill="#fff" opacity="0.1"/>
    <path id="Path_546" data-name="Path 546" d="M1938.76,1740.28a3.4,3.4,0,1,0,3.4,3.4A3.4,3.4,0,0,0,1938.76,1740.28Z" transform="translate(-1705.84 437.517)" fill="#fff" opacity="0.1"/>
    <path id="Path_547" data-name="Path 547" d="M1948.22,1746.69q-.634-3.027-1.337-6.027a3.4,3.4,0,0,0,1.337,6.027Z" transform="translate(-1697.41 437.834)" fill="#fff" opacity="0.1"/>
    <path id="Path_555" data-name="Path 555" d="M1887.85,1749.14a3.4,3.4,0,1,0,3.4,3.4,3.4,3.4,0,0,0-3.4-3.4Z" transform="translate(-1747.985 444.859)" fill="#fff" opacity="0.1"/>
    <path id="Path_556" data-name="Path 556" d="M1898.03,1749.14a3.4,3.4,0,1,0,3.4,3.4,3.4,3.4,0,0,0-3.4-3.4Z" transform="translate(-1739.556 444.859)" fill="#fff" opacity="0.1"/>
    <path id="Path_557" data-name="Path 557" d="M1908.21,1749.14a3.4,3.4,0,1,0,3.4,3.4A3.4,3.4,0,0,0,1908.21,1749.14Z" transform="translate(-1731.127 444.859)" fill="#fff" opacity="0.1"/>
    <path id="Path_558" data-name="Path 558" d="M1918.4,1749.14a3.4,3.4,0,1,0,3.4,3.4A3.4,3.4,0,0,0,1918.4,1749.14Z" transform="translate(-1722.697 444.859)" fill="#fff" opacity="0.1"/>
    <path id="Path_559" data-name="Path 559" d="M1928.58,1749.14a3.4,3.4,0,1,0,3.4,3.4A3.4,3.4,0,0,0,1928.58,1749.14Z" transform="translate(-1714.268 444.859)" fill="#fff" opacity="0.1"/>
    <path id="Path_560" data-name="Path 560" d="M1938.76,1749.14a3.4,3.4,0,1,0,3.4,3.4A3.4,3.4,0,0,0,1938.76,1749.14Z" transform="translate(-1705.84 444.859)" fill="#fff" opacity="0.1"/>
    <path id="Path_561" data-name="Path 561" d="M1948.94,1755.95a3.373,3.373,0,0,0,2.04-.683q-.43-2.977-.932-5.935a3.449,3.449,0,0,0-1.108-.187,3.4,3.4,0,1,0,0,6.8Z" transform="translate(-1697.41 444.859)" fill="#fff" opacity="0.1"/>
    <path id="Path_569" data-name="Path 569" d="M1887.85,1758.01a3.4,3.4,0,1,0,3.4,3.4,3.4,3.4,0,0,0-3.4-3.4Z" transform="translate(-1747.985 452.199)" fill="#fff" opacity="0.1"/>
    <path id="Path_570" data-name="Path 570" d="M1898.03,1758.01a3.4,3.4,0,1,0,3.4,3.4,3.4,3.4,0,0,0-3.4-3.4Z" transform="translate(-1739.556 452.199)" fill="#fff" opacity="0.1"/>
    <path id="Path_571" data-name="Path 571" d="M1908.21,1758.01a3.4,3.4,0,1,0,3.4,3.4A3.4,3.4,0,0,0,1908.21,1758.01Z" transform="translate(-1731.127 452.199)" fill="#fff" opacity="0.1"/>
    <path id="Path_572" data-name="Path 572" d="M1918.4,1758.01a3.4,3.4,0,1,0,3.4,3.4A3.4,3.4,0,0,0,1918.4,1758.01Z" transform="translate(-1722.697 452.199)" fill="#fff" opacity="0.1"/>
    <path id="Path_573" data-name="Path 573" d="M1928.58,1758.01a3.4,3.4,0,1,0,3.4,3.4A3.4,3.4,0,0,0,1928.58,1758.01Z" transform="translate(-1714.268 452.199)" fill="#fff" opacity="0.1"/>
    <path id="Path_574" data-name="Path 574" d="M1938.76,1758.01a3.4,3.4,0,1,0,3.4,3.4A3.4,3.4,0,0,0,1938.76,1758.01Z" transform="translate(-1705.84 452.199)" fill="#fff" opacity="0.1"/>
    <path id="Path_575" data-name="Path 575" d="M1948.94,1764.82a3.4,3.4,0,1,0-2.406-1,3.4,3.4,0,0,0,2.406,1Z" transform="translate(-1697.41 452.199)" fill="#fff" opacity="0.1"/>
    <path id="Path_583" data-name="Path 583" d="M1887.85,1766.88a3.4,3.4,0,1,0,3.4,3.4,3.4,3.4,0,0,0-3.4-3.4Z" transform="translate(-1747.985 459.542)" fill="#fff" opacity="0.1"/>
    <path id="Path_584" data-name="Path 584" d="M1898.03,1766.88a3.4,3.4,0,1,0,3.4,3.4,3.4,3.4,0,0,0-3.4-3.4Z" transform="translate(-1739.556 459.542)" fill="#fff" opacity="0.1"/>
    <path id="Path_585" data-name="Path 585" d="M1908.21,1766.88a3.4,3.4,0,1,0,3.4,3.4,3.4,3.4,0,0,0-3.4-3.4Z" transform="translate(-1731.127 459.542)" fill="#fff" opacity="0.1"/>
    <path id="Path_586" data-name="Path 586" d="M1918.4,1766.88a3.4,3.4,0,1,0,3.4,3.4,3.4,3.4,0,0,0-3.4-3.4Z" transform="translate(-1722.697 459.542)" fill="#fff" opacity="0.1"/>
    <path id="Path_587" data-name="Path 587" d="M1928.58,1766.88a3.4,3.4,0,1,0,3.4,3.4,3.4,3.4,0,0,0-3.4-3.4Z" transform="translate(-1714.268 459.542)" fill="#fff" opacity="0.1"/>
    <path id="Path_588" data-name="Path 588" d="M1938.76,1766.88a3.4,3.4,0,1,0,3.4,3.4,3.4,3.4,0,0,0-3.4-3.4Z" transform="translate(-1705.84 459.542)" fill="#fff" opacity="0.1"/>
    <path id="Path_589" data-name="Path 589" d="M1948.94,1766.88a3.4,3.4,0,1,0,2.408.993,3.4,3.4,0,0,0-2.408-.993Z" transform="translate(-1697.41 459.542)" fill="#fff" opacity="0.1"/>
    <path id="Path_597" data-name="Path 597" d="M1887.85,1775.75a3.4,3.4,0,1,0,3.4,3.4,3.4,3.4,0,0,0-3.4-3.4Z" transform="translate(-1747.985 466.884)" fill="#fff" opacity="0.1"/>
    <path id="Path_598" data-name="Path 598" d="M1898.03,1775.75a3.4,3.4,0,1,0,3.4,3.4,3.4,3.4,0,0,0-3.4-3.4Z" transform="translate(-1739.556 466.884)" fill="#fff" opacity="0.1"/>
    <path id="Path_599" data-name="Path 599" d="M1908.21,1775.75a3.4,3.4,0,1,0,3.4,3.4,3.4,3.4,0,0,0-3.4-3.4Z" transform="translate(-1731.127 466.884)" fill="#fff" opacity="0.1"/>
    <path id="Path_600" data-name="Path 600" d="M1918.4,1775.75a3.4,3.4,0,1,0,3.4,3.4,3.4,3.4,0,0,0-3.4-3.4Z" transform="translate(-1722.697 466.884)" fill="#fff" opacity="0.1"/>
    <path id="Path_601" data-name="Path 601" d="M1928.58,1775.75a3.4,3.4,0,1,0,3.4,3.4,3.4,3.4,0,0,0-3.4-3.4Z" transform="translate(-1714.268 466.884)" fill="#fff" opacity="0.1"/>
    <path id="Path_602" data-name="Path 602" d="M1938.76,1775.75a3.4,3.4,0,1,0,3.4,3.4,3.4,3.4,0,0,0-3.4-3.4Z" transform="translate(-1705.84 466.884)" fill="#fff" opacity="0.1"/>
    <path id="Path_603" data-name="Path 603" d="M1948.94,1775.75a3.4,3.4,0,1,0,2.409.993,3.4,3.4,0,0,0-2.409-.993Z" transform="translate(-1697.41 466.884)" fill="#fff" opacity="0.1"/>
    <path id="Path_610" data-name="Path 610" d="M1887.85,1784.62a3.4,3.4,0,1,0,3.4,3.4,3.4,3.4,0,0,0-3.4-3.4Z" transform="translate(-1747.985 474.225)" fill="#fff" opacity="0.1"/>
    <circle id="Ellipse_4" data-name="Ellipse 4" cx="3.402" cy="3.402" r="3.402" transform="translate(155.071 2258.842)" fill="#fff" opacity="0.1"/>
    <path id="Path_611" data-name="Path 611" d="M1908.21,1784.62a3.4,3.4,0,1,0,3.4,3.4,3.4,3.4,0,0,0-3.4-3.4Z" transform="translate(-1731.127 474.225)" fill="#fff" opacity="0.1"/>
    <path id="Path_612" data-name="Path 612" d="M1918.4,1784.62a3.4,3.4,0,1,0,3.4,3.4,3.4,3.4,0,0,0-3.4-3.4Z" transform="translate(-1722.697 474.225)" fill="#fff" opacity="0.1"/>
    <path id="Path_613" data-name="Path 613" d="M1928.58,1784.62a3.4,3.4,0,1,0,3.4,3.4,3.4,3.4,0,0,0-3.4-3.4Z" transform="translate(-1714.268 474.225)" fill="#fff" opacity="0.1"/>
    <path id="Path_614" data-name="Path 614" d="M1938.76,1784.62a3.4,3.4,0,1,0,3.4,3.4,3.4,3.4,0,0,0-3.4-3.4Z" transform="translate(-1705.84 474.225)" fill="#fff" opacity="0.1"/>
    <path id="Path_615" data-name="Path 615" d="M1948.94,1784.62a3.4,3.4,0,1,0,2.409.993,3.4,3.4,0,0,0-2.409-.993Z" transform="translate(-1697.41 474.225)" fill="#fff" opacity="0.1"/>
    <path id="Path_623" data-name="Path 623" d="M1887.85,1793.49a3.4,3.4,0,1,0,3.4,3.4,3.4,3.4,0,0,0-3.4-3.4Z" transform="translate(-1747.985 481.567)" fill="#fff" opacity="0.1"/>
    <path id="Path_624" data-name="Path 624" d="M1898.03,1793.49a3.4,3.4,0,1,0,3.4,3.4,3.4,3.4,0,0,0-3.4-3.4Z" transform="translate(-1739.556 481.567)" fill="#fff" opacity="0.1"/>
    <path id="Path_625" data-name="Path 625" d="M1908.21,1793.49a3.4,3.4,0,1,0,3.4,3.4,3.4,3.4,0,0,0-3.4-3.4Z" transform="translate(-1731.127 481.567)" fill="#fff" opacity="0.1"/>
    <path id="Path_626" data-name="Path 626" d="M1918.4,1793.49a3.4,3.4,0,1,0,3.4,3.4,3.4,3.4,0,0,0-3.4-3.4Z" transform="translate(-1722.697 481.567)" fill="#fff" opacity="0.1"/>
    <path id="Path_627" data-name="Path 627" d="M1928.58,1793.49a3.4,3.4,0,1,0,3.4,3.4,3.4,3.4,0,0,0-3.4-3.4Z" transform="translate(-1714.268 481.567)" fill="#fff" opacity="0.1"/>
    <path id="Path_628" data-name="Path 628" d="M1938.76,1793.49a3.4,3.4,0,1,0,3.4,3.4,3.4,3.4,0,0,0-3.4-3.4Z" transform="translate(-1705.84 481.567)" fill="#fff" opacity="0.1"/>
    <path id="Path_629" data-name="Path 629" d="M1950.76,1794.02a3.4,3.4,0,1,0-1.826,6.271,3.259,3.259,0,0,0,.817-.1,3.4,3.4,0,0,0,1.009-6.169Z" transform="translate(-1697.41 481.567)" fill="#fff" opacity="0.1"/>
    <path id="Path_637" data-name="Path 637" d="M1877.46,1802.35a3.477,3.477,0,0,0-.55.049c-.764,1.7-1.574,3.372-2.407,5.032a3.4,3.4,0,1,0,2.957-5.082Z" transform="translate(-1756.212 488.908)" fill="#fff" opacity="0.1"/>
    <path id="Path_638" data-name="Path 638" d="M1887.85,1802.35a3.4,3.4,0,1,0,3.4,3.4,3.4,3.4,0,0,0-3.4-3.4Z" transform="translate(-1747.985 488.908)" fill="#fff" opacity="0.1"/>
    <circle id="Ellipse_6" data-name="Ellipse 6" cx="3.402" cy="3.402" r="3.402" transform="translate(155.071 2291.263)" fill="#fff" opacity="0.1"/>
    <path id="Path_639" data-name="Path 639" d="M1908.21,1802.35a3.4,3.4,0,1,0,3.4,3.4,3.4,3.4,0,0,0-3.4-3.4Z" transform="translate(-1731.127 488.908)" fill="#fff" opacity="0.1"/>
    <path id="Path_640" data-name="Path 640" d="M1918.4,1802.35a3.4,3.4,0,1,0,3.4,3.4,3.4,3.4,0,0,0-3.4-3.4Z" transform="translate(-1722.697 488.908)" fill="#fff" opacity="0.1"/>
    <path id="Path_641" data-name="Path 641" d="M1928.58,1802.35a3.4,3.4,0,1,0,3.4,3.4,3.4,3.4,0,0,0-3.4-3.4Z" transform="translate(-1714.268 488.908)" fill="#fff" opacity="0.1"/>
    <path id="Path_642" data-name="Path 642" d="M1938.76,1802.35a3.4,3.4,0,1,0,3.4,3.4,3.4,3.4,0,0,0-3.4-3.4Z" transform="translate(-1705.84 488.908)" fill="#fff" opacity="0.1"/>
    <path id="Path_643" data-name="Path 643" d="M1945.54,1805.68a3.389,3.389,0,0,0,1.024,2.429c.453-1.873.885-3.761,1.3-5.651A3.4,3.4,0,0,0,1945.54,1805.68Z" transform="translate(-1697.41 488.99)" fill="#fff" opacity="0.1"/>
    <path id="Path_651" data-name="Path 651" d="M1877.67,1811.22a3.4,3.4,0,1,0,3.4,3.4,3.4,3.4,0,0,0-3.4-3.4Z" transform="translate(-1756.413 496.25)" fill="#fff" opacity="0.1"/>
    <path id="Path_652" data-name="Path 652" d="M1887.85,1811.22a3.4,3.4,0,1,0,3.4,3.4,3.4,3.4,0,0,0-3.4-3.4Z" transform="translate(-1747.985 496.25)" fill="#fff" opacity="0.1"/>
    <path id="Path_653" data-name="Path 653" d="M1898.03,1811.22a3.4,3.4,0,1,0,3.4,3.4,3.4,3.4,0,0,0-3.4-3.4Z" transform="translate(-1739.556 496.25)" fill="#fff" opacity="0.1"/>
    <path id="Path_654" data-name="Path 654" d="M1908.21,1811.22a3.4,3.4,0,1,0,3.4,3.4A3.4,3.4,0,0,0,1908.21,1811.22Z" transform="translate(-1731.127 496.25)" fill="#fff" opacity="0.1"/>
    <path id="Path_655" data-name="Path 655" d="M1918.4,1811.22a3.4,3.4,0,1,0,3.4,3.4A3.4,3.4,0,0,0,1918.4,1811.22Z" transform="translate(-1722.697 496.25)" fill="#fff" opacity="0.1"/>
    <path id="Path_656" data-name="Path 656" d="M1928.58,1811.22a3.4,3.4,0,1,0,3.4,3.4A3.4,3.4,0,0,0,1928.58,1811.22Z" transform="translate(-1714.268 496.25)" fill="#fff" opacity="0.1"/>
    <path id="Path_657" data-name="Path 657" d="M1938.76,1811.22a3.4,3.4,0,1,0,3.4,3.4A3.4,3.4,0,0,0,1938.76,1811.22Z" transform="translate(-1705.84 496.25)" fill="#fff" opacity="0.1"/>
    <path id="Path_666" data-name="Path 666" d="M1867.48,1820.09a3.4,3.4,0,1,0,2.407.994A3.4,3.4,0,0,0,1867.48,1820.09Z" transform="translate(-1764.844 503.592)" fill="#fff" opacity="0.1"/>
    <path id="Path_667" data-name="Path 667" d="M1877.67,1820.09a3.4,3.4,0,1,0,3.4,3.4,3.4,3.4,0,0,0-3.4-3.4Z" transform="translate(-1756.413 503.592)" fill="#fff" opacity="0.1"/>
    <path id="Path_668" data-name="Path 668" d="M1887.85,1820.09a3.4,3.4,0,1,0,3.4,3.4,3.4,3.4,0,0,0-3.4-3.4Z" transform="translate(-1747.985 503.592)" fill="#fff" opacity="0.1"/>
    <path id="Path_669" data-name="Path 669" d="M1898.03,1820.09a3.4,3.4,0,1,0,3.4,3.4,3.4,3.4,0,0,0-3.4-3.4Z" transform="translate(-1739.556 503.592)" fill="#fff" opacity="0.1"/>
    <path id="Path_670" data-name="Path 670" d="M1908.21,1820.09a3.4,3.4,0,1,0,3.4,3.4A3.4,3.4,0,0,0,1908.21,1820.09Z" transform="translate(-1731.127 503.592)" fill="#fff" opacity="0.1"/>
    <path id="Path_671" data-name="Path 671" d="M1918.4,1820.09a3.4,3.4,0,1,0,3.4,3.4A3.4,3.4,0,0,0,1918.4,1820.09Z" transform="translate(-1722.697 503.592)" fill="#fff" opacity="0.1"/>
    <path id="Path_672" data-name="Path 672" d="M1928.58,1820.09a3.4,3.4,0,1,0,3.4,3.4A3.4,3.4,0,0,0,1928.58,1820.09Z" transform="translate(-1714.268 503.592)" fill="#fff" opacity="0.1"/>
    <path id="Path_673" data-name="Path 673" d="M1938.76,1820.09a3.4,3.4,0,1,0,3.4,3.4A3.4,3.4,0,0,0,1938.76,1820.09Z" transform="translate(-1705.84 503.592)" fill="#fff" opacity="0.1"/>
    <path id="Path_683" data-name="Path 683" d="M1857.3,1828.96a3.375,3.375,0,1,0,2.412.989A3.375,3.375,0,0,0,1857.3,1828.96Z" transform="translate(-1773.274 510.935)" fill="#fff" opacity="0.1"/>
    <path id="Path_684" data-name="Path 684" d="M1867.48,1828.96a3.4,3.4,0,1,0,2.407.994A3.4,3.4,0,0,0,1867.48,1828.96Z" transform="translate(-1764.844 510.935)" fill="#fff" opacity="0.1"/>
    <path id="Path_685" data-name="Path 685" d="M1877.67,1828.96a3.4,3.4,0,1,0,3.4,3.4,3.4,3.4,0,0,0-3.4-3.4Z" transform="translate(-1756.413 510.935)" fill="#fff" opacity="0.1"/>
    <path id="Path_686" data-name="Path 686" d="M1887.85,1828.96a3.4,3.4,0,1,0,3.4,3.4,3.4,3.4,0,0,0-3.4-3.4Z" transform="translate(-1747.985 510.935)" fill="#fff" opacity="0.1"/>
    <path id="Path_687" data-name="Path 687" d="M1898.03,1828.96a3.4,3.4,0,1,0,3.4,3.4,3.4,3.4,0,0,0-3.4-3.4Z" transform="translate(-1739.556 510.935)" fill="#fff" opacity="0.1"/>
    <path id="Path_688" data-name="Path 688" d="M1908.21,1828.96a3.4,3.4,0,1,0,3.4,3.4A3.4,3.4,0,0,0,1908.21,1828.96Z" transform="translate(-1731.127 510.935)" fill="#fff" opacity="0.1"/>
    <path id="Path_689" data-name="Path 689" d="M1918.4,1828.96a3.4,3.4,0,1,0,3.4,3.4A3.4,3.4,0,0,0,1918.4,1828.96Z" transform="translate(-1722.697 510.935)" fill="#fff" opacity="0.1"/>
    <path id="Path_690" data-name="Path 690" d="M1928.58,1828.96a3.4,3.4,0,1,0,3.4,3.4A3.4,3.4,0,0,0,1928.58,1828.96Z" transform="translate(-1714.268 510.935)" fill="#fff" opacity="0.1"/>
    <path id="Path_691" data-name="Path 691" d="M1935.36,1832.36a3.4,3.4,0,0,0,2.215,3.184q1.453-3.062,2.824-6.167a3.35,3.35,0,0,0-1.634-.416,3.4,3.4,0,0,0-3.405,3.4Z" transform="translate(-1705.84 510.935)" fill="#fff" opacity="0.1"/>
    <path id="Path_702" data-name="Path 702" d="M1833.92,1841.86a3.4,3.4,0,0,0,6.1-2.062c0-.082-.009-.161-.015-.245Q1837,1840.78,1833.92,1841.86Z" transform="translate(-1789.813 519.705)" fill="#fff" opacity="0.1"/>
    <path id="Path_703" data-name="Path 703" d="M1847.12,1837.83a3.4,3.4,0,1,0,3.4,3.4A3.4,3.4,0,0,0,1847.12,1837.83Z" transform="translate(-1781.702 518.275)" fill="#fff" opacity="0.1"/>
    <path id="Path_704" data-name="Path 704" d="M1857.3,1837.83a3.4,3.4,0,1,0,3.4,3.4A3.4,3.4,0,0,0,1857.3,1837.83Z" transform="translate(-1773.274 518.275)" fill="#fff" opacity="0.1"/>
    <path id="Path_705" data-name="Path 705" d="M1867.48,1837.83a3.4,3.4,0,1,0,2.407.994A3.4,3.4,0,0,0,1867.48,1837.83Z" transform="translate(-1764.844 518.275)" fill="#fff" opacity="0.1"/>
    <path id="Path_706" data-name="Path 706" d="M1877.67,1837.83a3.4,3.4,0,1,0,3.4,3.4,3.4,3.4,0,0,0-3.4-3.4Z" transform="translate(-1756.413 518.275)" fill="#fff" opacity="0.1"/>
    <path id="Path_707" data-name="Path 707" d="M1887.85,1837.83a3.4,3.4,0,1,0,3.4,3.4,3.4,3.4,0,0,0-3.4-3.4Z" transform="translate(-1747.985 518.275)" fill="#fff" opacity="0.1"/>
    <path id="Path_708" data-name="Path 708" d="M1898.03,1837.83a3.4,3.4,0,1,0,3.4,3.4,3.4,3.4,0,0,0-3.4-3.4Z" transform="translate(-1739.556 518.275)" fill="#fff" opacity="0.1"/>
    <path id="Path_709" data-name="Path 709" d="M1908.21,1837.83a3.4,3.4,0,1,0,3.4,3.4A3.4,3.4,0,0,0,1908.21,1837.83Z" transform="translate(-1731.127 518.275)" fill="#fff" opacity="0.1"/>
    <path id="Path_710" data-name="Path 710" d="M1918.4,1837.83a3.4,3.4,0,1,0,3.4,3.4A3.4,3.4,0,0,0,1918.4,1837.83Z" transform="translate(-1722.697 518.275)" fill="#fff" opacity="0.1"/>
    <path id="Path_711" data-name="Path 711" d="M1928.58,1837.83a3.4,3.4,0,1,0,3.4,3.4A3.4,3.4,0,0,0,1928.58,1837.83Z" transform="translate(-1714.268 518.275)" fill="#fff" opacity="0.1"/>
    <path id="Path_724" data-name="Path 724" d="M1816.57,1846.7a3.4,3.4,0,1,0,3.4,3.4,3.4,3.4,0,0,0-3.4-3.4Z" transform="translate(-1806.989 525.617)" fill="#fff" opacity="0.1"/>
    <path id="Path_725" data-name="Path 725" d="M1826.76,1846.7a3.4,3.4,0,1,0,3.4,3.4A3.4,3.4,0,0,0,1826.76,1846.7Z" transform="translate(-1798.562 525.617)" fill="#fff" opacity="0.1"/>
    <path id="Path_726" data-name="Path 726" d="M1836.94,1846.7a3.4,3.4,0,1,0,3.4,3.4A3.4,3.4,0,0,0,1836.94,1846.7Z" transform="translate(-1790.132 525.617)" fill="#fff" opacity="0.1"/>
    <path id="Path_727" data-name="Path 727" d="M1847.12,1846.7a3.4,3.4,0,1,0,3.4,3.4A3.4,3.4,0,0,0,1847.12,1846.7Z" transform="translate(-1781.702 525.617)" fill="#fff" opacity="0.1"/>
    <path id="Path_728" data-name="Path 728" d="M1857.3,1846.7a3.4,3.4,0,1,0,3.4,3.4A3.4,3.4,0,0,0,1857.3,1846.7Z" transform="translate(-1773.274 525.617)" fill="#fff" opacity="0.1"/>
    <path id="Path_729" data-name="Path 729" d="M1867.48,1846.7a3.4,3.4,0,1,0,2.407.994A3.4,3.4,0,0,0,1867.48,1846.7Z" transform="translate(-1764.844 525.617)" fill="#fff" opacity="0.1"/>
    <path id="Path_730" data-name="Path 730" d="M1877.67,1846.7a3.4,3.4,0,1,0,3.4,3.4,3.4,3.4,0,0,0-3.4-3.4Z" transform="translate(-1756.413 525.617)" fill="#fff" opacity="0.1"/>
    <path id="Path_731" data-name="Path 731" d="M1887.85,1846.7a3.4,3.4,0,1,0,3.4,3.4,3.4,3.4,0,0,0-3.4-3.4Z" transform="translate(-1747.985 525.617)" fill="#fff" opacity="0.1"/>
    <path id="Path_732" data-name="Path 732" d="M1898.03,1846.7a3.4,3.4,0,1,0,3.4,3.4,3.4,3.4,0,0,0-3.4-3.4Z" transform="translate(-1739.556 525.617)" fill="#fff" opacity="0.1"/>
    <path id="Path_733" data-name="Path 733" d="M1908.21,1846.7a3.4,3.4,0,1,0,3.4,3.4A3.4,3.4,0,0,0,1908.21,1846.7Z" transform="translate(-1731.127 525.617)" fill="#fff" opacity="0.1"/>
    <path id="Path_734" data-name="Path 734" d="M1918.4,1846.7a3.4,3.4,0,1,0,3.4,3.4A3.4,3.4,0,0,0,1918.4,1846.7Z" transform="translate(-1722.697 525.617)" fill="#fff" opacity="0.1"/>
    <path id="Path_735" data-name="Path 735" d="M1928.58,1846.7a3.4,3.4,0,0,0-.994,6.659q1.818-2.717,3.563-5.484a3.389,3.389,0,0,0-2.569-1.175Z" transform="translate(-1714.268 525.617)" fill="#fff" opacity="0.1"/>
    <path id="Path_747" data-name="Path 747" d="M1816.57,1855.57a3.4,3.4,0,1,0,3.4,3.4,3.4,3.4,0,0,0-3.4-3.4Z" transform="translate(-1806.989 532.958)" fill="#fff" opacity="0.1"/>
    <path id="Path_748" data-name="Path 748" d="M1826.76,1855.57a3.4,3.4,0,1,0,3.4,3.4A3.4,3.4,0,0,0,1826.76,1855.57Z" transform="translate(-1798.562 532.958)" fill="#fff" opacity="0.1"/>
    <path id="Path_749" data-name="Path 749" d="M1836.94,1855.57a3.4,3.4,0,1,0,3.4,3.4A3.4,3.4,0,0,0,1836.94,1855.57Z" transform="translate(-1790.132 532.958)" fill="#fff" opacity="0.1"/>
    <path id="Path_750" data-name="Path 750" d="M1847.12,1855.57a3.4,3.4,0,1,0,3.4,3.4A3.4,3.4,0,0,0,1847.12,1855.57Z" transform="translate(-1781.702 532.958)" fill="#fff" opacity="0.1"/>
    <path id="Path_751" data-name="Path 751" d="M1857.3,1855.57a3.4,3.4,0,1,0,3.4,3.4A3.4,3.4,0,0,0,1857.3,1855.57Z" transform="translate(-1773.274 532.958)" fill="#fff" opacity="0.1"/>
    <path id="Path_752" data-name="Path 752" d="M1867.48,1855.57a3.4,3.4,0,1,0,2.407.994A3.4,3.4,0,0,0,1867.48,1855.57Z" transform="translate(-1764.844 532.958)" fill="#fff" opacity="0.1"/>
    <path id="Path_753" data-name="Path 753" d="M1877.67,1855.57a3.4,3.4,0,1,0,3.4,3.4,3.4,3.4,0,0,0-3.4-3.4Z" transform="translate(-1756.413 532.958)" fill="#fff" opacity="0.1"/>
    <path id="Path_754" data-name="Path 754" d="M1887.85,1855.57a3.4,3.4,0,1,0,3.4,3.4,3.4,3.4,0,0,0-3.4-3.4Z" transform="translate(-1747.985 532.958)" fill="#fff" opacity="0.1"/>
    <path id="Path_755" data-name="Path 755" d="M1898.03,1855.57a3.4,3.4,0,1,0,3.4,3.4,3.4,3.4,0,0,0-3.4-3.4Z" transform="translate(-1739.556 532.958)" fill="#fff" opacity="0.1"/>
    <path id="Path_756" data-name="Path 756" d="M1908.21,1855.57a3.4,3.4,0,1,0,3.4,3.4A3.4,3.4,0,0,0,1908.21,1855.57Z" transform="translate(-1731.127 532.958)" fill="#fff" opacity="0.1"/>
    <path id="Path_757" data-name="Path 757" d="M1918.4,1855.57a3.4,3.4,0,1,0,3.4,3.4A3.4,3.4,0,0,0,1918.4,1855.57Z" transform="translate(-1722.697 532.958)" fill="#fff" opacity="0.1"/>
    <path id="Path_768" data-name="Path 768" d="M1816.57,1864.43a3.4,3.4,0,1,0,3.4,3.4,3.4,3.4,0,0,0-3.4-3.4Z" transform="translate(-1806.989 540.299)" fill="#fff" opacity="0.1"/>
    <path id="Path_769" data-name="Path 769" d="M1826.76,1864.43a3.4,3.4,0,1,0,3.4,3.4A3.4,3.4,0,0,0,1826.76,1864.43Z" transform="translate(-1798.562 540.299)" fill="#fff" opacity="0.1"/>
    <path id="Path_770" data-name="Path 770" d="M1836.94,1864.43a3.4,3.4,0,1,0,3.4,3.4A3.4,3.4,0,0,0,1836.94,1864.43Z" transform="translate(-1790.132 540.299)" fill="#fff" opacity="0.1"/>
    <path id="Path_771" data-name="Path 771" d="M1847.12,1864.43a3.4,3.4,0,1,0,3.4,3.4A3.4,3.4,0,0,0,1847.12,1864.43Z" transform="translate(-1781.702 540.299)" fill="#fff" opacity="0.1"/>
    <path id="Path_772" data-name="Path 772" d="M1857.3,1864.43a3.4,3.4,0,1,0,3.4,3.4A3.4,3.4,0,0,0,1857.3,1864.43Z" transform="translate(-1773.274 540.299)" fill="#fff" opacity="0.1"/>
    <path id="Path_773" data-name="Path 773" d="M1867.48,1864.43a3.4,3.4,0,1,0,2.407.994A3.4,3.4,0,0,0,1867.48,1864.43Z" transform="translate(-1764.844 540.299)" fill="#fff" opacity="0.1"/>
    <path id="Path_774" data-name="Path 774" d="M1877.67,1864.43a3.4,3.4,0,1,0,3.4,3.4,3.4,3.4,0,0,0-3.4-3.4Z" transform="translate(-1756.413 540.299)" fill="#fff" opacity="0.1"/>
    <path id="Path_775" data-name="Path 775" d="M1887.85,1864.43a3.4,3.4,0,1,0,3.4,3.4,3.4,3.4,0,0,0-3.4-3.4Z" transform="translate(-1747.985 540.299)" fill="#fff" opacity="0.1"/>
    <path id="Path_776" data-name="Path 776" d="M1898.03,1864.43a3.4,3.4,0,1,0,3.4,3.4,3.4,3.4,0,0,0-3.4-3.4Z" transform="translate(-1739.556 540.299)" fill="#fff" opacity="0.1"/>
    <path id="Path_777" data-name="Path 777" d="M1908.21,1864.43a3.4,3.4,0,1,0,3.4,3.4A3.4,3.4,0,0,0,1908.21,1864.43Z" transform="translate(-1731.127 540.299)" fill="#fff" opacity="0.1"/>
    <path id="Path_788" data-name="Path 788" d="M1816.57,1873.3a3.4,3.4,0,1,0,3.4,3.4,3.4,3.4,0,0,0-3.4-3.4Z" transform="translate(-1806.989 547.641)" fill="#fff" opacity="0.1"/>
    <path id="Path_789" data-name="Path 789" d="M1826.76,1873.3a3.4,3.4,0,1,0,3.4,3.4A3.4,3.4,0,0,0,1826.76,1873.3Z" transform="translate(-1798.562 547.641)" fill="#fff" opacity="0.1"/>
    <path id="Path_790" data-name="Path 790" d="M1836.94,1873.3a3.4,3.4,0,1,0,3.4,3.4A3.4,3.4,0,0,0,1836.94,1873.3Z" transform="translate(-1790.132 547.641)" fill="#fff" opacity="0.1"/>
    <path id="Path_791" data-name="Path 791" d="M1847.12,1873.3a3.4,3.4,0,1,0,3.4,3.4A3.4,3.4,0,0,0,1847.12,1873.3Z" transform="translate(-1781.702 547.641)" fill="#fff" opacity="0.1"/>
    <path id="Path_792" data-name="Path 792" d="M1857.3,1873.3a3.4,3.4,0,1,0,3.4,3.4A3.4,3.4,0,0,0,1857.3,1873.3Z" transform="translate(-1773.274 547.641)" fill="#fff" opacity="0.1"/>
    <path id="Path_793" data-name="Path 793" d="M1867.48,1873.3a3.4,3.4,0,1,0,2.407.994A3.4,3.4,0,0,0,1867.48,1873.3Z" transform="translate(-1764.844 547.641)" fill="#fff" opacity="0.1"/>
    <path id="Path_794" data-name="Path 794" d="M1877.67,1873.3a3.4,3.4,0,1,0,3.4,3.4,3.4,3.4,0,0,0-3.4-3.4Z" transform="translate(-1756.413 547.641)" fill="#fff" opacity="0.1"/>
    <path id="Path_795" data-name="Path 795" d="M1887.85,1873.3a3.4,3.4,0,1,0,3.4,3.4,3.4,3.4,0,0,0-3.4-3.4Z" transform="translate(-1747.985 547.641)" fill="#fff" opacity="0.1"/>
    <path id="Path_796" data-name="Path 796" d="M1898.03,1873.3a3.4,3.4,0,1,0,3.4,3.4,3.4,3.4,0,0,0-3.4-3.4Z" transform="translate(-1739.556 547.641)" fill="#fff" opacity="0.1"/>
    <path id="Path_797" data-name="Path 797" d="M1904.81,1876.7a3.523,3.523,0,0,0,.112.85q2.194-2.016,4.33-4.087a3.4,3.4,0,0,0-4.442,3.237Z" transform="translate(-1731.127 547.641)" fill="#fff" opacity="0.1"/>
    <path id="Path_807" data-name="Path 807" d="M1816.57,1882.17a3.4,3.4,0,1,0,3.4,3.4,3.4,3.4,0,0,0-3.4-3.4Z" transform="translate(-1806.989 554.983)" fill="#fff" opacity="0.1"/>
    <path id="Path_808" data-name="Path 808" d="M1826.76,1882.17a3.4,3.4,0,1,0,3.4,3.4A3.4,3.4,0,0,0,1826.76,1882.17Z" transform="translate(-1798.562 554.983)" fill="#fff" opacity="0.1"/>
    <path id="Path_809" data-name="Path 809" d="M1836.94,1882.17a3.4,3.4,0,1,0,3.4,3.4A3.4,3.4,0,0,0,1836.94,1882.17Z" transform="translate(-1790.132 554.983)" fill="#fff" opacity="0.1"/>
    <path id="Path_810" data-name="Path 810" d="M1847.12,1882.17a3.4,3.4,0,1,0,3.4,3.4A3.4,3.4,0,0,0,1847.12,1882.17Z" transform="translate(-1781.702 554.983)" fill="#fff" opacity="0.1"/>
    <path id="Path_811" data-name="Path 811" d="M1857.3,1882.17a3.4,3.4,0,1,0,3.4,3.4A3.4,3.4,0,0,0,1857.3,1882.17Z" transform="translate(-1773.274 554.983)" fill="#fff" opacity="0.1"/>
    <path id="Path_812" data-name="Path 812" d="M1867.48,1882.17a3.4,3.4,0,1,0,2.407.994A3.4,3.4,0,0,0,1867.48,1882.17Z" transform="translate(-1764.844 554.983)" fill="#fff" opacity="0.1"/>
    <path id="Path_813" data-name="Path 813" d="M1877.67,1882.17a3.4,3.4,0,1,0,3.4,3.4,3.4,3.4,0,0,0-3.4-3.4Z" transform="translate(-1756.413 554.983)" fill="#fff" opacity="0.1"/>
    <path id="Path_814" data-name="Path 814" d="M1887.85,1882.17a3.4,3.4,0,1,0,3.4,3.4,3.4,3.4,0,0,0-3.4-3.4Z" transform="translate(-1747.985 554.983)" fill="#fff" opacity="0.1"/>
    <path id="Path_815" data-name="Path 815" d="M1894.63,1885.57c0,.106.008.209.017.313q2.279-1.735,4.522-3.517a3.449,3.449,0,0,0-1.137-.2,3.4,3.4,0,0,0-3.4,3.4Z" transform="translate(-1739.556 554.983)" fill="#fff" opacity="0.1"/>
    <path id="Path_822" data-name="Path 822" d="M1816.57,1891.04a3.4,3.4,0,1,0,3.4,3.4,3.4,3.4,0,0,0-3.4-3.4Z" transform="translate(-1806.989 562.324)" fill="#fff" opacity="0.1"/>
    <path id="Path_823" data-name="Path 823" d="M1826.76,1891.04a3.4,3.4,0,1,0,3.4,3.4A3.4,3.4,0,0,0,1826.76,1891.04Z" transform="translate(-1798.562 562.324)" fill="#fff" opacity="0.1"/>
    <path id="Path_824" data-name="Path 824" d="M1836.94,1891.04a3.4,3.4,0,1,0,3.4,3.4A3.4,3.4,0,0,0,1836.94,1891.04Z" transform="translate(-1790.132 562.324)" fill="#fff" opacity="0.1"/>
    <path id="Path_825" data-name="Path 825" d="M1847.12,1891.04a3.4,3.4,0,1,0,3.4,3.4A3.4,3.4,0,0,0,1847.12,1891.04Z" transform="translate(-1781.702 562.324)" fill="#fff" opacity="0.1"/>
    <path id="Path_826" data-name="Path 826" d="M1857.3,1891.04a3.4,3.4,0,1,0,3.4,3.4A3.4,3.4,0,0,0,1857.3,1891.04Z" transform="translate(-1773.274 562.324)" fill="#fff" opacity="0.1"/>
    <circle id="Ellipse_8" data-name="Ellipse 8" cx="3.403" cy="3.403" r="3.403" transform="translate(99.237 2453.362)" fill="#fff" opacity="0.1"/>
    <path id="Path_827" data-name="Path 827" d="M1877.67,1891.04a3.4,3.4,0,1,0,3.4,3.4,3.4,3.4,0,0,0-3.4-3.4Z" transform="translate(-1756.413 562.324)" fill="#fff" opacity="0.1"/>
    <path id="Path_834" data-name="Path 834" d="M1816.57,1899.91a3.4,3.4,0,1,0,3.4,3.4,3.4,3.4,0,0,0-3.4-3.4Z" transform="translate(-1806.989 569.666)" fill="#fff" opacity="0.1"/>
    <path id="Path_835" data-name="Path 835" d="M1826.76,1899.91a3.4,3.4,0,1,0,3.4,3.4A3.4,3.4,0,0,0,1826.76,1899.91Z" transform="translate(-1798.562 569.666)" fill="#fff" opacity="0.1"/>
    <path id="Path_836" data-name="Path 836" d="M1836.94,1899.91a3.4,3.4,0,1,0,3.4,3.4A3.4,3.4,0,0,0,1836.94,1899.91Z" transform="translate(-1790.132 569.666)" fill="#fff" opacity="0.1"/>
    <path id="Path_837" data-name="Path 837" d="M1847.12,1899.91a3.4,3.4,0,1,0,3.4,3.4A3.4,3.4,0,0,0,1847.12,1899.91Z" transform="translate(-1781.702 569.666)" fill="#fff" opacity="0.1"/>
    <path id="Path_838" data-name="Path 838" d="M1857.3,1899.91a3.4,3.4,0,1,0,3.4,3.4A3.4,3.4,0,0,0,1857.3,1899.91Z" transform="translate(-1773.274 569.666)" fill="#fff" opacity="0.1"/>
    <path id="Path_839" data-name="Path 839" d="M1864.08,1903.31c0,.042.007.084.009.13,1.947-.815,3.891-1.656,5.811-2.52a3.4,3.4,0,0,0-5.82,2.391Z" transform="translate(-1764.844 569.666)" fill="#fff" opacity="0.1"/>
    <path id="Path_843" data-name="Path 843" d="M1816.57,1908.78a3.4,3.4,0,1,0,2.406,1,3.4,3.4,0,0,0-2.406-1Z" transform="translate(-1806.989 577.007)" fill="#fff" opacity="0.1"/>
    <path id="Path_844" data-name="Path 844" d="M1826.76,1908.78a3.406,3.406,0,1,0,3.4,3.405,3.406,3.406,0,0,0-3.4-3.405Z" transform="translate(-1798.562 577.007)" fill="#fff" opacity="0.1"/>
    <path id="Path_845" data-name="Path 845" d="M1836.94,1908.78a3.405,3.405,0,0,0-3.405,3.405.526.526,0,0,0,.006.1q3.322-.564,6.613-1.21A3.4,3.4,0,0,0,1836.94,1908.78Z" transform="translate(-1790.132 577.007)" fill="#fff" opacity="0.1"/>
    <path id="Path_322" data-name="Path 322" d="M1776.89,1637.1q-1.5.381-2.99.779a3.273,3.273,0,0,0,.737.084,3.381,3.381,0,0,0,2.253-.863Z" transform="translate(-1839.499 352.11)" fill="#fff" opacity="0.1"/>
    <path id="Path_323" data-name="Path 323" d="M1782.65,1636.04a3.1,3.1,0,0,0-.027.391,3.4,3.4,0,1,0,6.419-1.576Q1785.83,1635.41,1782.65,1636.04Z" transform="translate(-1832.278 350.246)" fill="#fff" opacity="0.1"/>
    <path id="Path_324" data-name="Path 324" d="M1796.21,1633.85a3.4,3.4,0,1,0,3.4,3.4,3.4,3.4,0,0,0-3.4-3.4Z" transform="translate(-1823.848 349.418)" fill="#fff" opacity="0.1"/>
    <path id="Path_325" data-name="Path 325" d="M1806.39,1633.85a3.4,3.4,0,1,0,3.4,3.4,3.4,3.4,0,0,0-3.4-3.4Z" transform="translate(-1815.418 349.418)" fill="#fff" opacity="0.1"/>
    <path id="Path_330" data-name="Path 330" d="M1752.21,1646.53a3.4,3.4,0,1,0,6.224-2.731Q1755.31,1645.12,1752.21,1646.53Z" transform="translate(-1857.449 357.648)" fill="#fff" opacity="0.1"/>
    <path id="Path_331" data-name="Path 331" d="M1765.66,1642.72a3.4,3.4,0,1,0,3.4,3.4,3.4,3.4,0,0,0-3.4-3.4Z" transform="translate(-1849.136 356.76)" fill="#fff" opacity="0.1"/>
    <path id="Path_332" data-name="Path 332" d="M1775.84,1642.72a3.4,3.4,0,1,0,3.4,3.4,3.4,3.4,0,0,0-3.4-3.4Z" transform="translate(-1840.706 356.76)" fill="#fff" opacity="0.1"/>
    <path id="Path_333" data-name="Path 333" d="M1786.03,1642.72a3.4,3.4,0,1,0,2.407.994,3.4,3.4,0,0,0-2.407-.994Z" transform="translate(-1832.278 356.76)" fill="#fff" opacity="0.1"/>
    <path id="Path_334" data-name="Path 334" d="M1796.21,1642.72a3.4,3.4,0,1,0,3.4,3.4,3.4,3.4,0,0,0-3.4-3.4Z" transform="translate(-1823.848 356.76)" fill="#fff" opacity="0.1"/>
    <path id="Path_335" data-name="Path 335" d="M1806.39,1642.72a3.4,3.4,0,1,0,3.4,3.4,3.4,3.4,0,0,0-3.4-3.4Z" transform="translate(-1815.418 356.76)" fill="#fff" opacity="0.1"/>
    <path id="Path_342" data-name="Path 342" d="M1735.87,1654.61c-.618.391-1.232.793-1.85,1.192a3.391,3.391,0,0,0,1.85-1.192Z" transform="translate(-1872.514 366.598)" fill="#fff" opacity="0.1"/>
    <path id="Path_343" data-name="Path 343" d="M1745.29,1651.59a3.4,3.4,0,1,0,3.4,3.4,3.4,3.4,0,0,0-3.4-3.4Z" transform="translate(-1865.993 364.102)" fill="#fff" opacity="0.1"/>
    <path id="Path_344" data-name="Path 344" d="M1755.48,1651.59a3.4,3.4,0,1,0,2.407.994,3.4,3.4,0,0,0-2.407-.994Z" transform="translate(-1857.566 364.102)" fill="#fff" opacity="0.1"/>
    <path id="Path_345" data-name="Path 345" d="M1765.66,1651.59a3.4,3.4,0,1,0,3.4,3.4,3.4,3.4,0,0,0-3.4-3.4Z" transform="translate(-1849.136 364.102)" fill="#fff" opacity="0.1"/>
    <path id="Path_346" data-name="Path 346" d="M1775.84,1651.59a3.4,3.4,0,1,0,3.4,3.4,3.4,3.4,0,0,0-3.4-3.4Z" transform="translate(-1840.706 364.102)" fill="#fff" opacity="0.1"/>
    <path id="Path_347" data-name="Path 347" d="M1786.03,1651.59a3.4,3.4,0,1,0,2.407.994,3.4,3.4,0,0,0-2.407-.994Z" transform="translate(-1832.278 364.102)" fill="#fff" opacity="0.1"/>
    <path id="Path_348" data-name="Path 348" d="M1796.21,1651.59a3.4,3.4,0,1,0,3.4,3.4,3.4,3.4,0,0,0-3.4-3.4Z" transform="translate(-1823.848 364.102)" fill="#fff" opacity="0.1"/>
    <path id="Path_349" data-name="Path 349" d="M1806.39,1651.59a3.4,3.4,0,1,0,3.4,3.4,3.4,3.4,0,0,0-3.4-3.4Z" transform="translate(-1815.418 364.102)" fill="#fff" opacity="0.1"/>
    <path id="Path_358" data-name="Path 358" d="M1722.25,1665.63a3.4,3.4,0,0,0,5.191-4.076Q1724.81,1663.56,1722.25,1665.63Z" transform="translate(-1882.258 372.35)" fill="#fff" opacity="0.1"/>
    <path id="Path_359" data-name="Path 359" d="M1735.11,1660.46a3.4,3.4,0,1,0,3.4,3.4,3.4,3.4,0,0,0-3.4-3.4Z" transform="translate(-1874.423 371.444)" fill="#fff" opacity="0.1"/>
    <path id="Path_360" data-name="Path 360" d="M1745.29,1660.46a3.4,3.4,0,1,0,3.4,3.4,3.4,3.4,0,0,0-3.4-3.4Z" transform="translate(-1865.993 371.444)" fill="#fff" opacity="0.1"/>
    <path id="Path_361" data-name="Path 361" d="M1755.48,1660.46a3.4,3.4,0,1,0,2.407.994,3.4,3.4,0,0,0-2.407-.994Z" transform="translate(-1857.566 371.444)" fill="#fff" opacity="0.1"/>
    <path id="Path_362" data-name="Path 362" d="M1765.66,1660.46a3.4,3.4,0,1,0,3.4,3.4,3.4,3.4,0,0,0-3.4-3.4Z" transform="translate(-1849.136 371.444)" fill="#fff" opacity="0.1"/>
    <path id="Path_363" data-name="Path 363" d="M1775.84,1660.46a3.4,3.4,0,1,0,3.4,3.4,3.4,3.4,0,0,0-3.4-3.4Z" transform="translate(-1840.706 371.444)" fill="#fff" opacity="0.1"/>
    <path id="Path_364" data-name="Path 364" d="M1786.03,1660.46a3.4,3.4,0,1,0,2.407.994,3.4,3.4,0,0,0-2.407-.994Z" transform="translate(-1832.278 371.444)" fill="#fff" opacity="0.1"/>
    <path id="Path_365" data-name="Path 365" d="M1796.21,1660.46a3.4,3.4,0,1,0,3.4,3.4,3.4,3.4,0,0,0-3.4-3.4Z" transform="translate(-1823.848 371.444)" fill="#fff" opacity="0.1"/>
    <path id="Path_366" data-name="Path 366" d="M1806.39,1660.46a3.4,3.4,0,1,0,3.4,3.4,3.4,3.4,0,0,0-3.4-3.4Z" transform="translate(-1815.418 371.444)" fill="#fff" opacity="0.1"/>
    <path id="Path_376" data-name="Path 376" d="M1712.18,1674.81a3.4,3.4,0,0,0,4.8-4.575Q1714.54,1672.49,1712.18,1674.81Z" transform="translate(-1890.593 379.537)" fill="#fff" opacity="0.1"/>
    <path id="Path_377" data-name="Path 377" d="M1724.93,1669.33a3.4,3.4,0,1,0,3.4,3.4,3.4,3.4,0,0,0-3.4-3.4Z" transform="translate(-1882.853 378.784)" fill="#fff" opacity="0.1"/>
    <path id="Path_378" data-name="Path 378" d="M1735.11,1669.33a3.4,3.4,0,1,0,3.4,3.4,3.4,3.4,0,0,0-3.4-3.4Z" transform="translate(-1874.423 378.784)" fill="#fff" opacity="0.1"/>
    <path id="Path_379" data-name="Path 379" d="M1745.29,1669.33a3.4,3.4,0,1,0,3.4,3.4,3.4,3.4,0,0,0-3.4-3.4Z" transform="translate(-1865.993 378.784)" fill="#fff" opacity="0.1"/>
    <path id="Path_380" data-name="Path 380" d="M1755.48,1669.33a3.4,3.4,0,1,0,2.407.994,3.4,3.4,0,0,0-2.407-.994Z" transform="translate(-1857.566 378.784)" fill="#fff" opacity="0.1"/>
    <path id="Path_381" data-name="Path 381" d="M1765.66,1669.33a3.4,3.4,0,1,0,3.4,3.4,3.4,3.4,0,0,0-3.4-3.4Z" transform="translate(-1849.136 378.784)" fill="#fff" opacity="0.1"/>
    <path id="Path_382" data-name="Path 382" d="M1775.84,1669.33a3.4,3.4,0,1,0,3.4,3.4,3.4,3.4,0,0,0-3.4-3.4Z" transform="translate(-1840.706 378.784)" fill="#fff" opacity="0.1"/>
    <path id="Path_383" data-name="Path 383" d="M1786.03,1669.33a3.4,3.4,0,1,0,2.407.994,3.4,3.4,0,0,0-2.407-.994Z" transform="translate(-1832.278 378.784)" fill="#fff" opacity="0.1"/>
    <path id="Path_384" data-name="Path 384" d="M1796.21,1669.33a3.4,3.4,0,1,0,3.4,3.4,3.4,3.4,0,0,0-3.4-3.4Z" transform="translate(-1823.848 378.784)" fill="#fff" opacity="0.1"/>
    <path id="Path_385" data-name="Path 385" d="M1806.39,1669.33a3.4,3.4,0,1,0,3.4,3.4,3.4,3.4,0,0,0-3.4-3.4Z" transform="translate(-1815.418 378.784)" fill="#fff" opacity="0.1"/>
    <path id="Path_396" data-name="Path 396" d="M1705.75,1680.5c-.68.779-1.356,1.555-2.027,2.342A3.41,3.41,0,0,0,1705.75,1680.5Z" transform="translate(-1897.594 388.035)" fill="#fff" opacity="0.1"/>
    <path id="Path_397" data-name="Path 397" d="M1714.75,1678.2a3.4,3.4,0,1,0,3.4,3.4,3.4,3.4,0,0,0-3.4-3.4Z" transform="translate(-1891.283 386.126)" fill="#fff" opacity="0.1"/>
    <path id="Path_398" data-name="Path 398" d="M1724.93,1678.2a3.4,3.4,0,1,0,3.4,3.4,3.4,3.4,0,0,0-3.4-3.4Z" transform="translate(-1882.853 386.126)" fill="#fff" opacity="0.1"/>
    <path id="Path_399" data-name="Path 399" d="M1735.11,1678.2a3.4,3.4,0,1,0,3.4,3.4,3.4,3.4,0,0,0-3.4-3.4Z" transform="translate(-1874.423 386.126)" fill="#fff" opacity="0.1"/>
    <path id="Path_400" data-name="Path 400" d="M1745.29,1678.2a3.4,3.4,0,1,0,3.4,3.4,3.4,3.4,0,0,0-3.4-3.4Z" transform="translate(-1865.993 386.126)" fill="#fff" opacity="0.1"/>
    <path id="Path_401" data-name="Path 401" d="M1755.48,1678.2a3.4,3.4,0,1,0,2.407.994,3.4,3.4,0,0,0-2.407-.994Z" transform="translate(-1857.566 386.126)" fill="#fff" opacity="0.1"/>
    <path id="Path_402" data-name="Path 402" d="M1765.66,1678.2a3.4,3.4,0,1,0,3.4,3.4,3.4,3.4,0,0,0-3.4-3.4Z" transform="translate(-1849.136 386.126)" fill="#fff" opacity="0.1"/>
    <path id="Path_403" data-name="Path 403" d="M1775.84,1678.2a3.4,3.4,0,1,0,3.4,3.4,3.4,3.4,0,0,0-3.4-3.4Z" transform="translate(-1840.706 386.126)" fill="#fff" opacity="0.1"/>
    <path id="Path_404" data-name="Path 404" d="M1786.03,1678.2a3.4,3.4,0,1,0,2.407.994,3.4,3.4,0,0,0-2.407-.994Z" transform="translate(-1832.278 386.126)" fill="#fff" opacity="0.1"/>
    <path id="Path_405" data-name="Path 405" d="M1796.21,1678.2a3.4,3.4,0,1,0,3.4,3.4,3.4,3.4,0,0,0-3.4-3.4Z" transform="translate(-1823.848 386.126)" fill="#fff" opacity="0.1"/>
    <path id="Path_406" data-name="Path 406" d="M1806.39,1678.2a3.4,3.4,0,1,0,3.4,3.4,3.4,3.4,0,0,0-3.4-3.4Z" transform="translate(-1815.418 386.126)" fill="#fff" opacity="0.1"/>
    <path id="Path_418" data-name="Path 418" d="M1704.57,1687.06a3.4,3.4,0,1,0,2.407.994,3.4,3.4,0,0,0-2.407-.994Z" transform="translate(-1899.712 393.468)" fill="#fff" opacity="0.1"/>
    <path id="Path_419" data-name="Path 419" d="M1714.75,1687.06a3.4,3.4,0,1,0,3.4,3.4,3.4,3.4,0,0,0-3.4-3.4Z" transform="translate(-1891.283 393.468)" fill="#fff" opacity="0.1"/>
    <path id="Path_420" data-name="Path 420" d="M1724.93,1687.06a3.4,3.4,0,1,0,3.4,3.4,3.4,3.4,0,0,0-3.4-3.4Z" transform="translate(-1882.853 393.468)" fill="#fff" opacity="0.1"/>
    <path id="Path_421" data-name="Path 421" d="M1735.11,1687.06a3.4,3.4,0,1,0,3.4,3.4,3.4,3.4,0,0,0-3.4-3.4Z" transform="translate(-1874.423 393.468)" fill="#fff" opacity="0.1"/>
    <path id="Path_422" data-name="Path 422" d="M1745.29,1687.06a3.4,3.4,0,1,0,3.4,3.4,3.4,3.4,0,0,0-3.4-3.4Z" transform="translate(-1865.993 393.468)" fill="#fff" opacity="0.1"/>
    <path id="Path_423" data-name="Path 423" d="M1755.48,1687.06a3.4,3.4,0,1,0,2.407.994,3.4,3.4,0,0,0-2.407-.994Z" transform="translate(-1857.566 393.468)" fill="#fff" opacity="0.1"/>
    <path id="Path_424" data-name="Path 424" d="M1765.66,1687.06a3.4,3.4,0,1,0,3.4,3.4,3.4,3.4,0,0,0-3.4-3.4Z" transform="translate(-1849.136 393.468)" fill="#fff" opacity="0.1"/>
    <path id="Path_425" data-name="Path 425" d="M1775.84,1687.06a3.4,3.4,0,1,0,3.4,3.4,3.4,3.4,0,0,0-3.4-3.4Z" transform="translate(-1840.706 393.468)" fill="#fff" opacity="0.1"/>
    <path id="Path_426" data-name="Path 426" d="M1786.03,1687.06a3.4,3.4,0,1,0,2.407.994,3.4,3.4,0,0,0-2.407-.994Z" transform="translate(-1832.278 393.468)" fill="#fff" opacity="0.1"/>
    <path id="Path_427" data-name="Path 427" d="M1796.21,1687.06a3.4,3.4,0,1,0,3.4,3.4,3.4,3.4,0,0,0-3.4-3.4Z" transform="translate(-1823.848 393.468)" fill="#fff" opacity="0.1"/>
    <path id="Path_428" data-name="Path 428" d="M1806.39,1687.06a3.4,3.4,0,1,0,3.4,3.4,3.4,3.4,0,0,0-3.4-3.4Z" transform="translate(-1815.418 393.468)" fill="#fff" opacity="0.1"/>
    <path id="Path_440" data-name="Path 440" d="M1694.56,1695.95q-1.678,2.555-3.3,5.151a3.4,3.4,0,1,0,3.3-5.151Z" transform="translate(-1907.913 400.821)" fill="#fff" opacity="0.1"/>
    <path id="Path_441" data-name="Path 441" d="M1704.57,1695.93a3.4,3.4,0,1,0,2.407.994,3.4,3.4,0,0,0-2.407-.994Z" transform="translate(-1899.712 400.81)" fill="#fff" opacity="0.1"/>
    <path id="Path_442" data-name="Path 442" d="M1714.75,1695.93a3.4,3.4,0,1,0,3.4,3.4,3.4,3.4,0,0,0-3.4-3.4Z" transform="translate(-1891.283 400.81)" fill="#fff" opacity="0.1"/>
    <path id="Path_443" data-name="Path 443" d="M1724.93,1695.93a3.4,3.4,0,1,0,3.4,3.4,3.4,3.4,0,0,0-3.4-3.4Z" transform="translate(-1882.853 400.81)" fill="#fff" opacity="0.1"/>
    <path id="Path_444" data-name="Path 444" d="M1735.11,1695.93a3.4,3.4,0,1,0,3.4,3.4,3.4,3.4,0,0,0-3.4-3.4Z" transform="translate(-1874.423 400.81)" fill="#fff" opacity="0.1"/>
    <path id="Path_445" data-name="Path 445" d="M1745.29,1695.93a3.4,3.4,0,1,0,3.4,3.4,3.4,3.4,0,0,0-3.4-3.4Z" transform="translate(-1865.993 400.81)" fill="#fff" opacity="0.1"/>
    <path id="Path_446" data-name="Path 446" d="M1755.48,1695.93a3.4,3.4,0,1,0,2.407.994,3.4,3.4,0,0,0-2.407-.994Z" transform="translate(-1857.566 400.81)" fill="#fff" opacity="0.1"/>
    <path id="Path_447" data-name="Path 447" d="M1765.66,1695.93a3.4,3.4,0,1,0,3.4,3.4,3.4,3.4,0,0,0-3.4-3.4Z" transform="translate(-1849.136 400.81)" fill="#fff" opacity="0.1"/>
    <path id="Path_448" data-name="Path 448" d="M1775.84,1695.93a3.4,3.4,0,1,0,3.4,3.4,3.4,3.4,0,0,0-3.4-3.4Z" transform="translate(-1840.706 400.81)" fill="#fff" opacity="0.1"/>
    <path id="Path_449" data-name="Path 449" d="M1786.03,1695.93a3.4,3.4,0,1,0,2.407.994,3.4,3.4,0,0,0-2.407-.994Z" transform="translate(-1832.278 400.81)" fill="#fff" opacity="0.1"/>
    <path id="Path_450" data-name="Path 450" d="M1796.21,1695.93a3.4,3.4,0,1,0,3.4,3.4,3.4,3.4,0,0,0-3.4-3.4Z" transform="translate(-1823.848 400.81)" fill="#fff" opacity="0.1"/>
    <path id="Path_451" data-name="Path 451" d="M1806.39,1695.93a3.4,3.4,0,1,0,3.4,3.4,3.4,3.4,0,0,0-3.4-3.4Z" transform="translate(-1815.418 400.81)" fill="#fff" opacity="0.1"/>
    <path id="Path_464" data-name="Path 464" d="M1694.38,1704.8a3.4,3.4,0,1,0,3.4,3.4,3.4,3.4,0,0,0-3.4-3.4Z" transform="translate(-1908.141 408.152)" fill="#fff" opacity="0.1"/>
    <path id="Path_465" data-name="Path 465" d="M1704.57,1704.8a3.4,3.4,0,1,0,2.407.994,3.4,3.4,0,0,0-2.407-.994Z" transform="translate(-1899.712 408.152)" fill="#fff" opacity="0.1"/>
    <path id="Path_466" data-name="Path 466" d="M1714.75,1704.8a3.4,3.4,0,1,0,3.4,3.4,3.4,3.4,0,0,0-3.4-3.4Z" transform="translate(-1891.283 408.152)" fill="#fff" opacity="0.1"/>
    <path id="Path_467" data-name="Path 467" d="M1724.93,1704.8a3.4,3.4,0,1,0,3.4,3.4,3.4,3.4,0,0,0-3.4-3.4Z" transform="translate(-1882.853 408.152)" fill="#fff" opacity="0.1"/>
    <path id="Path_468" data-name="Path 468" d="M1735.11,1704.8a3.4,3.4,0,1,0,3.4,3.4,3.4,3.4,0,0,0-3.4-3.4Z" transform="translate(-1874.423 408.152)" fill="#fff" opacity="0.1"/>
    <path id="Path_469" data-name="Path 469" d="M1745.29,1704.8a3.4,3.4,0,1,0,3.4,3.4,3.4,3.4,0,0,0-3.4-3.4Z" transform="translate(-1865.993 408.152)" fill="#fff" opacity="0.1"/>
    <path id="Path_470" data-name="Path 470" d="M1755.48,1704.8a3.4,3.4,0,1,0,2.407.994,3.4,3.4,0,0,0-2.407-.994Z" transform="translate(-1857.566 408.152)" fill="#fff" opacity="0.1"/>
    <path id="Path_471" data-name="Path 471" d="M1765.66,1704.8a3.4,3.4,0,1,0,3.4,3.4,3.4,3.4,0,0,0-3.4-3.4Z" transform="translate(-1849.136 408.152)" fill="#fff" opacity="0.1"/>
    <path id="Path_472" data-name="Path 472" d="M1775.84,1704.8a3.4,3.4,0,1,0,3.4,3.4,3.4,3.4,0,0,0-3.4-3.4Z" transform="translate(-1840.706 408.152)" fill="#fff" opacity="0.1"/>
    <path id="Path_473" data-name="Path 473" d="M1782.76,1706.9c1.512-.618,3.04-1.215,4.581-1.778a3.406,3.406,0,0,0-4.581,1.778Z" transform="translate(-1832.161 408.152)" fill="#fff" opacity="0.1"/>
    <path id="Path_484" data-name="Path 484" d="M1684.39,1713.73q-1.418,3.041-2.753,6.123a3.4,3.4,0,1,0,2.753-6.123Z" transform="translate(-1915.879 415.546)" fill="#fff" opacity="0.1"/>
    <path id="Path_485" data-name="Path 485" d="M1694.38,1713.67a3.4,3.4,0,1,0,3.4,3.4,3.4,3.4,0,0,0-3.4-3.4Z" transform="translate(-1908.141 415.493)" fill="#fff" opacity="0.1"/>
    <path id="Path_486" data-name="Path 486" d="M1704.57,1713.67a3.4,3.4,0,1,0,2.407.994,3.4,3.4,0,0,0-2.407-.994Z" transform="translate(-1899.712 415.493)" fill="#fff" opacity="0.1"/>
    <path id="Path_487" data-name="Path 487" d="M1714.75,1713.67a3.4,3.4,0,1,0,3.4,3.4,3.4,3.4,0,0,0-3.4-3.4Z" transform="translate(-1891.283 415.493)" fill="#fff" opacity="0.1"/>
    <path id="Path_488" data-name="Path 488" d="M1724.93,1713.67a3.4,3.4,0,1,0,3.4,3.4,3.4,3.4,0,0,0-3.4-3.4Z" transform="translate(-1882.853 415.493)" fill="#fff" opacity="0.1"/>
    <path id="Path_489" data-name="Path 489" d="M1735.11,1713.67a3.4,3.4,0,1,0,3.4,3.4,3.4,3.4,0,0,0-3.4-3.4Z" transform="translate(-1874.423 415.493)" fill="#fff" opacity="0.1"/>
    <path id="Path_490" data-name="Path 490" d="M1745.29,1713.67a3.4,3.4,0,1,0,3.4,3.4,3.4,3.4,0,0,0-3.4-3.4Z" transform="translate(-1865.993 415.493)" fill="#fff" opacity="0.1"/>
    <path id="Path_491" data-name="Path 491" d="M1755.48,1713.67a3.4,3.4,0,1,0,2.407.994,3.4,3.4,0,0,0-2.407-.994Z" transform="translate(-1857.566 415.493)" fill="#fff" opacity="0.1"/>
    <path id="Path_492" data-name="Path 492" d="M1765.66,1713.67a3.4,3.4,0,0,0-.541,6.756q1.941-1.618,3.933-3.156c.006-.066.011-.132.011-.2a3.4,3.4,0,0,0-3.4-3.4Z" transform="translate(-1849.136 415.493)" fill="#fff" opacity="0.1"/>
    <path id="Path_502" data-name="Path 502" d="M1684.2,1722.54a3.4,3.4,0,1,0,2.407.994,3.4,3.4,0,0,0-2.407-.994Z" transform="translate(-1916.569 422.835)" fill="#fff" opacity="0.1"/>
    <path id="Path_503" data-name="Path 503" d="M1694.38,1722.54a3.4,3.4,0,1,0,3.4,3.4,3.4,3.4,0,0,0-3.4-3.4Z" transform="translate(-1908.141 422.835)" fill="#fff" opacity="0.1"/>
    <path id="Path_504" data-name="Path 504" d="M1704.57,1722.54a3.4,3.4,0,1,0,2.407.994,3.4,3.4,0,0,0-2.407-.994Z" transform="translate(-1899.712 422.835)" fill="#fff" opacity="0.1"/>
    <path id="Path_505" data-name="Path 505" d="M1714.75,1722.54a3.4,3.4,0,1,0,3.4,3.4,3.4,3.4,0,0,0-3.4-3.4Z" transform="translate(-1891.283 422.835)" fill="#fff" opacity="0.1"/>
    <path id="Path_506" data-name="Path 506" d="M1724.93,1722.54a3.4,3.4,0,1,0,3.4,3.4,3.4,3.4,0,0,0-3.4-3.4Z" transform="translate(-1882.853 422.835)" fill="#fff" opacity="0.1"/>
    <path id="Path_507" data-name="Path 507" d="M1735.11,1722.54a3.4,3.4,0,1,0,3.4,3.4,3.4,3.4,0,0,0-3.4-3.4Z" transform="translate(-1874.423 422.835)" fill="#fff" opacity="0.1"/>
    <path id="Path_508" data-name="Path 508" d="M1745.29,1722.54a3.4,3.4,0,1,0,3.4,3.4,3.4,3.4,0,0,0-3.4-3.4Z" transform="translate(-1865.993 422.835)" fill="#fff" opacity="0.1"/>
    <path id="Path_509" data-name="Path 509" d="M1755.48,1722.54a3.4,3.4,0,1,0,2.407.994,3.4,3.4,0,0,0-2.407-.994Z" transform="translate(-1857.566 422.835)" fill="#fff" opacity="0.1"/>
    <path id="Path_518" data-name="Path 518" d="M1684.2,1731.41a3.4,3.4,0,1,0,2.407.994,3.4,3.4,0,0,0-2.407-.994Z" transform="translate(-1916.569 430.176)" fill="#fff" opacity="0.1"/>
    <path id="Path_519" data-name="Path 519" d="M1694.38,1731.41a3.4,3.4,0,1,0,3.4,3.4,3.4,3.4,0,0,0-3.4-3.4Z" transform="translate(-1908.141 430.176)" fill="#fff" opacity="0.1"/>
    <path id="Path_520" data-name="Path 520" d="M1704.57,1731.41a3.4,3.4,0,1,0,2.407.994,3.4,3.4,0,0,0-2.407-.994Z" transform="translate(-1899.712 430.176)" fill="#fff" opacity="0.1"/>
    <path id="Path_521" data-name="Path 521" d="M1714.75,1731.41a3.4,3.4,0,1,0,3.4,3.4,3.4,3.4,0,0,0-3.4-3.4Z" transform="translate(-1891.283 430.176)" fill="#fff" opacity="0.1"/>
    <path id="Path_522" data-name="Path 522" d="M1724.93,1731.41a3.4,3.4,0,1,0,3.4,3.4,3.4,3.4,0,0,0-3.4-3.4Z" transform="translate(-1882.853 430.176)" fill="#fff" opacity="0.1"/>
    <path id="Path_523" data-name="Path 523" d="M1735.11,1731.41a3.4,3.4,0,1,0,3.4,3.4,3.4,3.4,0,0,0-3.4-3.4Z" transform="translate(-1874.423 430.176)" fill="#fff" opacity="0.1"/>
    <path id="Path_524" data-name="Path 524" d="M1745.29,1731.41a3.4,3.4,0,1,0,3.4,3.4,3.4,3.4,0,0,0-3.4-3.4Z" transform="translate(-1865.993 430.176)" fill="#fff" opacity="0.1"/>
    <path id="Path_532" data-name="Path 532" d="M1673.1,1746.43a3.4,3.4,0,0,0,1.243-5.615Q1673.7,1743.61,1673.1,1746.43Z" transform="translate(-1922.939 437.964)" fill="#fff" opacity="0.1"/>
    <path id="Path_533" data-name="Path 533" d="M1684.2,1740.28a3.4,3.4,0,1,0,2.407.994,3.4,3.4,0,0,0-2.407-.994Z" transform="translate(-1916.569 437.517)" fill="#fff" opacity="0.1"/>
    <path id="Path_534" data-name="Path 534" d="M1694.38,1740.28a3.4,3.4,0,1,0,3.4,3.4,3.4,3.4,0,0,0-3.4-3.4Z" transform="translate(-1908.141 437.517)" fill="#fff" opacity="0.1"/>
    <path id="Path_535" data-name="Path 535" d="M1704.57,1740.28a3.4,3.4,0,1,0,2.407.994A3.4,3.4,0,0,0,1704.57,1740.28Z" transform="translate(-1899.712 437.517)" fill="#fff" opacity="0.1"/>
    <path id="Path_536" data-name="Path 536" d="M1714.75,1740.28a3.4,3.4,0,1,0,3.4,3.4,3.4,3.4,0,0,0-3.4-3.4Z" transform="translate(-1891.283 437.517)" fill="#fff" opacity="0.1"/>
    <path id="Path_537" data-name="Path 537" d="M1724.93,1740.28a3.4,3.4,0,1,0,3.4,3.4,3.4,3.4,0,0,0-3.4-3.4Z" transform="translate(-1882.853 437.517)" fill="#fff" opacity="0.1"/>
    <path id="Path_538" data-name="Path 538" d="M1735.11,1740.28a3.4,3.4,0,1,0,3.4,3.4A3.4,3.4,0,0,0,1735.11,1740.28Z" transform="translate(-1874.423 437.517)" fill="#fff" opacity="0.1"/>
    <path id="Path_539" data-name="Path 539" d="M1745.29,1747.08c.079,0,.152-.005.227-.011q1.195-2.739,2.5-5.414a3.4,3.4,0,1,0-2.727,5.425Z" transform="translate(-1865.993 437.517)" fill="#fff" opacity="0.1"/>
    <path id="Path_548" data-name="Path 548" d="M1673.24,1749.14a3.339,3.339,0,0,0-.687.07q-.532,3.131-.985,6.3a3.4,3.4,0,1,0,1.672-6.365Z" transform="translate(-1924.214 444.859)" fill="#fff" opacity="0.1"/>
    <path id="Path_549" data-name="Path 549" d="M1684.2,1749.14a3.4,3.4,0,1,0,2.407.994,3.4,3.4,0,0,0-2.407-.994Z" transform="translate(-1916.569 444.859)" fill="#fff" opacity="0.1"/>
    <path id="Path_550" data-name="Path 550" d="M1694.38,1749.14a3.4,3.4,0,1,0,3.4,3.4,3.4,3.4,0,0,0-3.4-3.4Z" transform="translate(-1908.141 444.859)" fill="#fff" opacity="0.1"/>
    <path id="Path_551" data-name="Path 551" d="M1704.57,1749.14a3.4,3.4,0,1,0,2.407.994A3.4,3.4,0,0,0,1704.57,1749.14Z" transform="translate(-1899.712 444.859)" fill="#fff" opacity="0.1"/>
    <path id="Path_552" data-name="Path 552" d="M1714.75,1749.14a3.4,3.4,0,1,0,3.4,3.4,3.4,3.4,0,0,0-3.4-3.4Z" transform="translate(-1891.283 444.859)" fill="#fff" opacity="0.1"/>
    <path id="Path_553" data-name="Path 553" d="M1724.93,1749.14a3.4,3.4,0,1,0,3.4,3.4,3.4,3.4,0,0,0-3.4-3.4Z" transform="translate(-1882.853 444.859)" fill="#fff" opacity="0.1"/>
    <path id="Path_554" data-name="Path 554" d="M1735.11,1749.14a3.4,3.4,0,1,0,3.4,3.4A3.4,3.4,0,0,0,1735.11,1749.14Z" transform="translate(-1874.423 444.859)" fill="#fff" opacity="0.1"/>
    <path id="Path_562" data-name="Path 562" d="M1674.02,1758.01a3.413,3.413,0,0,0-3.1,2,3.358,3.358,0,0,0-.2,2.211,3.4,3.4,0,1,0,3.3-4.208Z" transform="translate(-1924.999 452.199)" fill="#fff" opacity="0.1"/>
    <path id="Path_563" data-name="Path 563" d="M1684.2,1758.01a3.4,3.4,0,1,0,2.407.994,3.4,3.4,0,0,0-2.407-.994Z" transform="translate(-1916.569 452.199)" fill="#fff" opacity="0.1"/>
    <path id="Path_564" data-name="Path 564" d="M1694.38,1758.01a3.4,3.4,0,1,0,3.4,3.4,3.4,3.4,0,0,0-3.4-3.4Z" transform="translate(-1908.141 452.199)" fill="#fff" opacity="0.1"/>
    <path id="Path_565" data-name="Path 565" d="M1704.57,1758.01a3.4,3.4,0,1,0,2.407.994,3.4,3.4,0,0,0-2.407-.994Z" transform="translate(-1899.712 452.199)" fill="#fff" opacity="0.1"/>
    <path id="Path_566" data-name="Path 566" d="M1714.75,1758.01a3.4,3.4,0,1,0,3.4,3.4,3.4,3.4,0,0,0-3.4-3.4Z" transform="translate(-1891.283 452.199)" fill="#fff" opacity="0.1"/>
    <path id="Path_567" data-name="Path 567" d="M1724.93,1758.01a3.4,3.4,0,1,0,3.4,3.4,3.4,3.4,0,0,0-3.4-3.4Z" transform="translate(-1882.853 452.199)" fill="#fff" opacity="0.1"/>
    <path id="Path_568" data-name="Path 568" d="M1735.11,1758.01a3.4,3.4,0,1,0,3.4,3.4A3.4,3.4,0,0,0,1735.11,1758.01Z" transform="translate(-1874.423 452.199)" fill="#fff" opacity="0.1"/>
    <path id="Path_576" data-name="Path 576" d="M1674.02,1766.88a3.4,3.4,0,1,0,3.4,3.4,3.4,3.4,0,0,0-3.4-3.4Z" transform="translate(-1924.999 459.542)" fill="#fff" opacity="0.1"/>
    <path id="Path_577" data-name="Path 577" d="M1684.2,1766.88a3.4,3.4,0,1,0,2.407.994,3.4,3.4,0,0,0-2.407-.994Z" transform="translate(-1916.569 459.542)" fill="#fff" opacity="0.1"/>
    <path id="Path_578" data-name="Path 578" d="M1694.38,1766.88a3.4,3.4,0,1,0,3.4,3.4,3.4,3.4,0,0,0-3.4-3.4Z" transform="translate(-1908.141 459.542)" fill="#fff" opacity="0.1"/>
    <path id="Path_579" data-name="Path 579" d="M1704.57,1766.88a3.4,3.4,0,1,0,2.407.994,3.4,3.4,0,0,0-2.407-.994Z" transform="translate(-1899.712 459.542)" fill="#fff" opacity="0.1"/>
    <path id="Path_580" data-name="Path 580" d="M1714.75,1766.88a3.4,3.4,0,1,0,3.4,3.4,3.4,3.4,0,0,0-3.4-3.4Z" transform="translate(-1891.283 459.542)" fill="#fff" opacity="0.1"/>
    <path id="Path_581" data-name="Path 581" d="M1724.93,1766.88a3.4,3.4,0,1,0,3.4,3.4,3.4,3.4,0,0,0-3.4-3.4Z" transform="translate(-1882.853 459.542)" fill="#fff" opacity="0.1"/>
    <path id="Path_582" data-name="Path 582" d="M1735.11,1766.88a3.4,3.4,0,1,0,3.4,3.4,3.4,3.4,0,0,0-3.4-3.4Z" transform="translate(-1874.423 459.542)" fill="#fff" opacity="0.1"/>
    <path id="Path_590" data-name="Path 590" d="M1674.02,1775.75a3.4,3.4,0,1,0,3.4,3.4,3.4,3.4,0,0,0-3.4-3.4Z" transform="translate(-1924.999 466.884)" fill="#fff" opacity="0.1"/>
    <path id="Path_591" data-name="Path 591" d="M1684.2,1775.75a3.4,3.4,0,1,0,2.407.994,3.4,3.4,0,0,0-2.407-.994Z" transform="translate(-1916.569 466.884)" fill="#fff" opacity="0.1"/>
    <path id="Path_592" data-name="Path 592" d="M1694.38,1775.75a3.4,3.4,0,1,0,3.4,3.4,3.4,3.4,0,0,0-3.4-3.4Z" transform="translate(-1908.141 466.884)" fill="#fff" opacity="0.1"/>
    <path id="Path_593" data-name="Path 593" d="M1704.57,1775.75a3.4,3.4,0,1,0,2.407.994,3.4,3.4,0,0,0-2.407-.994Z" transform="translate(-1899.712 466.884)" fill="#fff" opacity="0.1"/>
    <path id="Path_594" data-name="Path 594" d="M1714.75,1775.75a3.4,3.4,0,1,0,3.4,3.4,3.4,3.4,0,0,0-3.4-3.4Z" transform="translate(-1891.283 466.884)" fill="#fff" opacity="0.1"/>
    <path id="Path_595" data-name="Path 595" d="M1724.93,1775.75a3.4,3.4,0,1,0,3.4,3.4,3.4,3.4,0,0,0-3.4-3.4Z" transform="translate(-1882.853 466.884)" fill="#fff" opacity="0.1"/>
    <path id="Path_596" data-name="Path 596" d="M1735.11,1775.75a3.4,3.4,0,1,0,3.4,3.4,3.4,3.4,0,0,0-3.4-3.4Z" transform="translate(-1874.423 466.884)" fill="#fff" opacity="0.1"/>
    <path id="Path_604" data-name="Path 604" d="M1674.02,1784.62a3.4,3.4,0,1,0,3.4,3.4,3.4,3.4,0,0,0-3.4-3.4Z" transform="translate(-1924.999 474.225)" fill="#fff" opacity="0.1"/>
    <path id="Path_605" data-name="Path 605" d="M1684.2,1784.62a3.4,3.4,0,1,0,2.407.994,3.4,3.4,0,0,0-2.407-.994Z" transform="translate(-1916.569 474.225)" fill="#fff" opacity="0.1"/>
    <path id="Path_606" data-name="Path 606" d="M1694.38,1784.62a3.4,3.4,0,1,0,3.4,3.4,3.4,3.4,0,0,0-3.4-3.4Z" transform="translate(-1908.141 474.225)" fill="#fff" opacity="0.1"/>
    <circle id="Ellipse_3" data-name="Ellipse 3" cx="3.403" cy="3.403" r="3.403" transform="translate(-198.549 2258.841)" fill="#fff" opacity="0.1"/>
    <path id="Path_607" data-name="Path 607" d="M1714.75,1784.62a3.4,3.4,0,1,0,3.4,3.4,3.4,3.4,0,0,0-3.4-3.4Z" transform="translate(-1891.283 474.225)" fill="#fff" opacity="0.1"/>
    <path id="Path_608" data-name="Path 608" d="M1724.93,1784.62a3.4,3.4,0,1,0,3.4,3.4,3.4,3.4,0,0,0-3.4-3.4Z" transform="translate(-1882.853 474.225)" fill="#fff" opacity="0.1"/>
    <path id="Path_609" data-name="Path 609" d="M1735.11,1784.62a3.4,3.4,0,1,0,3.4,3.4,3.4,3.4,0,0,0-3.4-3.4Z" transform="translate(-1874.423 474.225)" fill="#fff" opacity="0.1"/>
    <path id="Path_616" data-name="Path 616" d="M1673.14,1793.49a3.4,3.4,0,0,0-1.457.329q.488,3.241,1.051,6.449a3.249,3.249,0,0,0,.406.027,3.4,3.4,0,0,0,0-6.8Z" transform="translate(-1924.117 481.567)" fill="#fff" opacity="0.1"/>
    <path id="Path_617" data-name="Path 617" d="M1684.2,1793.49a3.4,3.4,0,1,0,2.407.994,3.4,3.4,0,0,0-2.407-.994Z" transform="translate(-1916.569 481.567)" fill="#fff" opacity="0.1"/>
    <path id="Path_618" data-name="Path 618" d="M1694.38,1793.49a3.4,3.4,0,1,0,3.4,3.4,3.4,3.4,0,0,0-3.4-3.4Z" transform="translate(-1908.141 481.567)" fill="#fff" opacity="0.1"/>
    <path id="Path_619" data-name="Path 619" d="M1704.57,1793.49a3.4,3.4,0,1,0,2.407.994,3.4,3.4,0,0,0-2.407-.994Z" transform="translate(-1899.712 481.567)" fill="#fff" opacity="0.1"/>
    <path id="Path_620" data-name="Path 620" d="M1714.75,1793.49a3.4,3.4,0,1,0,3.4,3.4,3.4,3.4,0,0,0-3.4-3.4Z" transform="translate(-1891.283 481.567)" fill="#fff" opacity="0.1"/>
    <path id="Path_621" data-name="Path 621" d="M1724.93,1793.49a3.4,3.4,0,1,0,3.4,3.4,3.4,3.4,0,0,0-3.4-3.4Z" transform="translate(-1882.853 481.567)" fill="#fff" opacity="0.1"/>
    <path id="Path_622" data-name="Path 622" d="M1735.11,1793.49a3.4,3.4,0,1,0,3.4,3.4,3.4,3.4,0,0,0-3.4-3.4Z" transform="translate(-1874.423 481.567)" fill="#fff" opacity="0.1"/>
    <path id="Path_630" data-name="Path 630" d="M1673.31,1802.55c.371,1.716.766,3.418,1.172,5.12a3.4,3.4,0,0,0-1.172-5.12Z" transform="translate(-1922.769 489.071)" fill="#fff" opacity="0.1"/>
    <path id="Path_631" data-name="Path 631" d="M1684.2,1802.35a3.4,3.4,0,1,0,2.407.994,3.4,3.4,0,0,0-2.407-.994Z" transform="translate(-1916.569 488.908)" fill="#fff" opacity="0.1"/>
    <path id="Path_632" data-name="Path 632" d="M1694.38,1802.35a3.4,3.4,0,1,0,3.4,3.4,3.4,3.4,0,0,0-3.4-3.4Z" transform="translate(-1908.141 488.908)" fill="#fff" opacity="0.1"/>
    <circle id="Ellipse_5" data-name="Ellipse 5" cx="3.403" cy="3.403" r="3.403" transform="translate(-198.549 2291.262)" fill="#fff" opacity="0.1"/>
    <path id="Path_633" data-name="Path 633" d="M1714.75,1802.35a3.4,3.4,0,1,0,3.4,3.4,3.4,3.4,0,0,0-3.4-3.4Z" transform="translate(-1891.283 488.908)" fill="#fff" opacity="0.1"/>
    <path id="Path_634" data-name="Path 634" d="M1724.93,1802.35a3.4,3.4,0,1,0,3.4,3.4,3.4,3.4,0,0,0-3.4-3.4Z" transform="translate(-1882.853 488.908)" fill="#fff" opacity="0.1"/>
    <path id="Path_635" data-name="Path 635" d="M1735.11,1802.35a3.4,3.4,0,1,0,3.4,3.4,3.4,3.4,0,0,0-3.4-3.4Z" transform="translate(-1874.423 488.908)" fill="#fff" opacity="0.1"/>
    <path id="Path_636" data-name="Path 636" d="M1745.29,1809.16a3.4,3.4,0,0,0,3.153-2.13c-.746-1.493-1.473-3-2.16-4.527a3.451,3.451,0,0,0-.993-.148,3.4,3.4,0,1,0,0,6.8Z" transform="translate(-1865.993 488.908)" fill="#fff" opacity="0.1"/>
    <path id="Path_644" data-name="Path 644" d="M1684.2,1811.22a3.4,3.4,0,1,0,2.407.994,3.4,3.4,0,0,0-2.407-.994Z" transform="translate(-1916.569 496.25)" fill="#fff" opacity="0.1"/>
    <path id="Path_645" data-name="Path 645" d="M1694.38,1811.22a3.4,3.4,0,1,0,3.4,3.4,3.4,3.4,0,0,0-3.4-3.4Z" transform="translate(-1908.141 496.25)" fill="#fff" opacity="0.1"/>
    <path id="Path_646" data-name="Path 646" d="M1704.57,1811.22a3.4,3.4,0,1,0,2.407.994A3.4,3.4,0,0,0,1704.57,1811.22Z" transform="translate(-1899.712 496.25)" fill="#fff" opacity="0.1"/>
    <path id="Path_647" data-name="Path 647" d="M1714.75,1811.22a3.4,3.4,0,1,0,3.4,3.4,3.4,3.4,0,0,0-3.4-3.4Z" transform="translate(-1891.283 496.25)" fill="#fff" opacity="0.1"/>
    <path id="Path_648" data-name="Path 648" d="M1724.93,1811.22a3.4,3.4,0,1,0,3.4,3.4,3.4,3.4,0,0,0-3.4-3.4Z" transform="translate(-1882.853 496.25)" fill="#fff" opacity="0.1"/>
    <path id="Path_649" data-name="Path 649" d="M1735.11,1811.22a3.4,3.4,0,1,0,3.4,3.4A3.4,3.4,0,0,0,1735.11,1811.22Z" transform="translate(-1874.423 496.25)" fill="#fff" opacity="0.1"/>
    <path id="Path_650" data-name="Path 650" d="M1745.29,1811.22a3.4,3.4,0,1,0,3.4,3.4,3.4,3.4,0,0,0-3.4-3.4Z" transform="translate(-1865.993 496.25)" fill="#fff" opacity="0.1"/>
    <path id="Path_658" data-name="Path 658" d="M1684.2,1820.09a3.4,3.4,0,1,0,2.407.994,3.4,3.4,0,0,0-2.407-.994Z" transform="translate(-1916.569 503.592)" fill="#fff" opacity="0.1"/>
    <path id="Path_659" data-name="Path 659" d="M1694.38,1820.09a3.4,3.4,0,1,0,3.4,3.4,3.4,3.4,0,0,0-3.4-3.4Z" transform="translate(-1908.141 503.592)" fill="#fff" opacity="0.1"/>
    <path id="Path_660" data-name="Path 660" d="M1704.57,1820.09a3.4,3.4,0,1,0,2.407.994A3.4,3.4,0,0,0,1704.57,1820.09Z" transform="translate(-1899.712 503.592)" fill="#fff" opacity="0.1"/>
    <path id="Path_661" data-name="Path 661" d="M1714.75,1820.09a3.4,3.4,0,1,0,3.4,3.4,3.4,3.4,0,0,0-3.4-3.4Z" transform="translate(-1891.283 503.592)" fill="#fff" opacity="0.1"/>
    <path id="Path_662" data-name="Path 662" d="M1724.93,1820.09a3.4,3.4,0,1,0,3.4,3.4,3.4,3.4,0,0,0-3.4-3.4Z" transform="translate(-1882.853 503.592)" fill="#fff" opacity="0.1"/>
    <path id="Path_663" data-name="Path 663" d="M1735.11,1820.09a3.4,3.4,0,1,0,3.4,3.4A3.4,3.4,0,0,0,1735.11,1820.09Z" transform="translate(-1874.423 503.592)" fill="#fff" opacity="0.1"/>
    <path id="Path_664" data-name="Path 664" d="M1745.29,1820.09a3.4,3.4,0,1,0,3.4,3.4,3.4,3.4,0,0,0-3.4-3.4Z" transform="translate(-1865.993 503.592)" fill="#fff" opacity="0.1"/>
    <path id="Path_665" data-name="Path 665" d="M1755.48,1820.09a3.4,3.4,0,1,0,2.407.994A3.4,3.4,0,0,0,1755.48,1820.09Z" transform="translate(-1857.566 503.592)" fill="#fff" opacity="0.1"/>
    <path id="Path_674" data-name="Path 674" d="M1683.25,1828.96a3.4,3.4,0,0,0-1.305.258q1.371,3.112,2.824,6.182a3.4,3.4,0,0,0-1.519-6.439Z" transform="translate(-1915.621 510.935)" fill="#fff" opacity="0.1"/>
    <path id="Path_675" data-name="Path 675" d="M1694.38,1828.96a3.4,3.4,0,1,0,3.4,3.4,3.4,3.4,0,0,0-3.4-3.4Z" transform="translate(-1908.141 510.935)" fill="#fff" opacity="0.1"/>
    <path id="Path_676" data-name="Path 676" d="M1704.57,1828.96a3.4,3.4,0,1,0,2.407.994A3.4,3.4,0,0,0,1704.57,1828.96Z" transform="translate(-1899.712 510.935)" fill="#fff" opacity="0.1"/>
    <path id="Path_677" data-name="Path 677" d="M1714.75,1828.96a3.4,3.4,0,1,0,3.4,3.4,3.4,3.4,0,0,0-3.4-3.4Z" transform="translate(-1891.283 510.935)" fill="#fff" opacity="0.1"/>
    <path id="Path_678" data-name="Path 678" d="M1724.93,1828.96a3.4,3.4,0,1,0,3.4,3.4,3.4,3.4,0,0,0-3.4-3.4Z" transform="translate(-1882.853 510.935)" fill="#fff" opacity="0.1"/>
    <path id="Path_679" data-name="Path 679" d="M1735.11,1828.96a3.4,3.4,0,1,0,3.4,3.4A3.4,3.4,0,0,0,1735.11,1828.96Z" transform="translate(-1874.423 510.935)" fill="#fff" opacity="0.1"/>
    <path id="Path_680" data-name="Path 680" d="M1745.29,1828.96a3.4,3.4,0,1,0,3.4,3.4,3.4,3.4,0,0,0-3.4-3.4Z" transform="translate(-1865.993 510.935)" fill="#fff" opacity="0.1"/>
    <path id="Path_681" data-name="Path 681" d="M1755.48,1828.96a3.4,3.4,0,1,0,2.407.994A3.4,3.4,0,0,0,1755.48,1828.96Z" transform="translate(-1857.566 510.935)" fill="#fff" opacity="0.1"/>
    <path id="Path_682" data-name="Path 682" d="M1765.66,1828.96a3.4,3.4,0,1,0,3.4,3.4A3.4,3.4,0,0,0,1765.66,1828.96Z" transform="translate(-1849.136 510.935)" fill="#fff" opacity="0.1"/>
    <path id="Path_692" data-name="Path 692" d="M1694.38,1837.83a3.4,3.4,0,1,0,3.4,3.4,3.4,3.4,0,0,0-3.4-3.4Z" transform="translate(-1908.141 518.275)" fill="#fff" opacity="0.1"/>
    <path id="Path_693" data-name="Path 693" d="M1704.57,1837.83a3.4,3.4,0,1,0,2.407.994A3.4,3.4,0,0,0,1704.57,1837.83Z" transform="translate(-1899.712 518.275)" fill="#fff" opacity="0.1"/>
    <path id="Path_694" data-name="Path 694" d="M1714.75,1837.83a3.4,3.4,0,1,0,3.4,3.4,3.4,3.4,0,0,0-3.4-3.4Z" transform="translate(-1891.283 518.275)" fill="#fff" opacity="0.1"/>
    <path id="Path_695" data-name="Path 695" d="M1724.93,1837.83a3.4,3.4,0,1,0,3.4,3.4,3.4,3.4,0,0,0-3.4-3.4Z" transform="translate(-1882.853 518.275)" fill="#fff" opacity="0.1"/>
    <path id="Path_696" data-name="Path 696" d="M1735.11,1837.83a3.4,3.4,0,1,0,3.4,3.4A3.4,3.4,0,0,0,1735.11,1837.83Z" transform="translate(-1874.423 518.275)" fill="#fff" opacity="0.1"/>
    <path id="Path_697" data-name="Path 697" d="M1745.29,1837.83a3.4,3.4,0,1,0,3.4,3.4,3.4,3.4,0,0,0-3.4-3.4Z" transform="translate(-1865.993 518.275)" fill="#fff" opacity="0.1"/>
    <path id="Path_698" data-name="Path 698" d="M1755.48,1837.83a3.4,3.4,0,1,0,2.407.994A3.4,3.4,0,0,0,1755.48,1837.83Z" transform="translate(-1857.566 518.275)" fill="#fff" opacity="0.1"/>
    <path id="Path_699" data-name="Path 699" d="M1765.66,1837.83a3.4,3.4,0,1,0,3.4,3.4A3.4,3.4,0,0,0,1765.66,1837.83Z" transform="translate(-1849.136 518.275)" fill="#fff" opacity="0.1"/>
    <path id="Path_700" data-name="Path 700" d="M1775.84,1837.83a3.4,3.4,0,1,0,3.4,3.4A3.4,3.4,0,0,0,1775.84,1837.83Z" transform="translate(-1840.706 518.275)" fill="#fff" opacity="0.1"/>
    <path id="Path_701" data-name="Path 701" d="M1782.62,1839.87a3.4,3.4,0,0,0,6.187,1.952q-3.115-1.1-6.16-2.353C1782.64,1839.6,1782.62,1839.74,1782.62,1839.87Z" transform="translate(-1832.278 519.635)" fill="#fff" opacity="0.1"/>
    <path id="Path_712" data-name="Path 712" d="M1693.9,1846.7a3.4,3.4,0,0,0-2.329.925q1.785,2.835,3.641,5.615a3.4,3.4,0,0,0-1.312-6.54Z" transform="translate(-1907.655 525.617)" fill="#fff" opacity="0.1"/>
    <path id="Path_713" data-name="Path 713" d="M1704.57,1846.7a3.4,3.4,0,1,0,2.407.994A3.4,3.4,0,0,0,1704.57,1846.7Z" transform="translate(-1899.712 525.617)" fill="#fff" opacity="0.1"/>
    <path id="Path_714" data-name="Path 714" d="M1714.75,1846.7a3.4,3.4,0,1,0,3.4,3.4,3.4,3.4,0,0,0-3.4-3.4Z" transform="translate(-1891.283 525.617)" fill="#fff" opacity="0.1"/>
    <path id="Path_715" data-name="Path 715" d="M1724.93,1846.7a3.4,3.4,0,1,0,3.4,3.4,3.4,3.4,0,0,0-3.4-3.4Z" transform="translate(-1882.853 525.617)" fill="#fff" opacity="0.1"/>
    <path id="Path_716" data-name="Path 716" d="M1735.11,1846.7a3.4,3.4,0,1,0,3.4,3.4A3.4,3.4,0,0,0,1735.11,1846.7Z" transform="translate(-1874.423 525.617)" fill="#fff" opacity="0.1"/>
    <path id="Path_717" data-name="Path 717" d="M1745.29,1846.7a3.4,3.4,0,1,0,3.4,3.4,3.4,3.4,0,0,0-3.4-3.4Z" transform="translate(-1865.993 525.617)" fill="#fff" opacity="0.1"/>
    <path id="Path_718" data-name="Path 718" d="M1755.48,1846.7a3.4,3.4,0,1,0,2.407.994A3.4,3.4,0,0,0,1755.48,1846.7Z" transform="translate(-1857.566 525.617)" fill="#fff" opacity="0.1"/>
    <path id="Path_719" data-name="Path 719" d="M1765.66,1846.7a3.4,3.4,0,1,0,3.4,3.4A3.4,3.4,0,0,0,1765.66,1846.7Z" transform="translate(-1849.136 525.617)" fill="#fff" opacity="0.1"/>
    <path id="Path_720" data-name="Path 720" d="M1775.84,1846.7a3.4,3.4,0,1,0,3.4,3.4A3.4,3.4,0,0,0,1775.84,1846.7Z" transform="translate(-1840.706 525.617)" fill="#fff" opacity="0.1"/>
    <path id="Path_721" data-name="Path 721" d="M1786.03,1846.7a3.4,3.4,0,1,0,2.407.994A3.4,3.4,0,0,0,1786.03,1846.7Z" transform="translate(-1832.278 525.617)" fill="#fff" opacity="0.1"/>
    <path id="Path_722" data-name="Path 722" d="M1796.21,1846.7a3.4,3.4,0,1,0,3.4,3.4,3.4,3.4,0,0,0-3.4-3.4Z" transform="translate(-1823.848 525.617)" fill="#fff" opacity="0.1"/>
    <path id="Path_723" data-name="Path 723" d="M1806.39,1846.7a3.4,3.4,0,1,0,3.4,3.4,3.4,3.4,0,0,0-3.4-3.4Z" transform="translate(-1815.418 525.617)" fill="#fff" opacity="0.1"/>
    <path id="Path_736" data-name="Path 736" d="M1704.57,1855.57a3.4,3.4,0,1,0,2.407.994A3.4,3.4,0,0,0,1704.57,1855.57Z" transform="translate(-1899.712 532.958)" fill="#fff" opacity="0.1"/>
    <path id="Path_737" data-name="Path 737" d="M1714.75,1855.57a3.4,3.4,0,1,0,3.4,3.4,3.4,3.4,0,0,0-3.4-3.4Z" transform="translate(-1891.283 532.958)" fill="#fff" opacity="0.1"/>
    <path id="Path_738" data-name="Path 738" d="M1724.93,1855.57a3.4,3.4,0,1,0,3.4,3.4,3.4,3.4,0,0,0-3.4-3.4Z" transform="translate(-1882.853 532.958)" fill="#fff" opacity="0.1"/>
    <path id="Path_739" data-name="Path 739" d="M1735.11,1855.57a3.4,3.4,0,1,0,3.4,3.4A3.4,3.4,0,0,0,1735.11,1855.57Z" transform="translate(-1874.423 532.958)" fill="#fff" opacity="0.1"/>
    <path id="Path_740" data-name="Path 740" d="M1745.29,1855.57a3.4,3.4,0,1,0,3.4,3.4,3.4,3.4,0,0,0-3.4-3.4Z" transform="translate(-1865.993 532.958)" fill="#fff" opacity="0.1"/>
    <path id="Path_741" data-name="Path 741" d="M1755.48,1855.57a3.4,3.4,0,1,0,2.407.994A3.4,3.4,0,0,0,1755.48,1855.57Z" transform="translate(-1857.566 532.958)" fill="#fff" opacity="0.1"/>
    <path id="Path_742" data-name="Path 742" d="M1765.66,1855.57a3.4,3.4,0,1,0,3.4,3.4A3.4,3.4,0,0,0,1765.66,1855.57Z" transform="translate(-1849.136 532.958)" fill="#fff" opacity="0.1"/>
    <path id="Path_743" data-name="Path 743" d="M1775.84,1855.57a3.4,3.4,0,1,0,3.4,3.4A3.4,3.4,0,0,0,1775.84,1855.57Z" transform="translate(-1840.706 532.958)" fill="#fff" opacity="0.1"/>
    <path id="Path_744" data-name="Path 744" d="M1786.03,1855.57a3.4,3.4,0,1,0,2.407.994A3.4,3.4,0,0,0,1786.03,1855.57Z" transform="translate(-1832.278 532.958)" fill="#fff" opacity="0.1"/>
    <path id="Path_745" data-name="Path 745" d="M1796.21,1855.57a3.4,3.4,0,1,0,3.4,3.4,3.4,3.4,0,0,0-3.4-3.4Z" transform="translate(-1823.848 532.958)" fill="#fff" opacity="0.1"/>
    <path id="Path_746" data-name="Path 746" d="M1806.39,1855.57a3.4,3.4,0,1,0,3.4,3.4,3.4,3.4,0,0,0-3.4-3.4Z" transform="translate(-1815.418 532.958)" fill="#fff" opacity="0.1"/>
    <path id="Path_758" data-name="Path 758" d="M1714.75,1864.43a3.4,3.4,0,1,0,3.4,3.4,3.4,3.4,0,0,0-3.4-3.4Z" transform="translate(-1891.283 540.299)" fill="#fff" opacity="0.1"/>
    <path id="Path_759" data-name="Path 759" d="M1724.93,1864.43a3.4,3.4,0,1,0,3.4,3.4,3.4,3.4,0,0,0-3.4-3.4Z" transform="translate(-1882.853 540.299)" fill="#fff" opacity="0.1"/>
    <path id="Path_760" data-name="Path 760" d="M1735.11,1864.43a3.4,3.4,0,1,0,3.4,3.4A3.4,3.4,0,0,0,1735.11,1864.43Z" transform="translate(-1874.423 540.299)" fill="#fff" opacity="0.1"/>
    <path id="Path_761" data-name="Path 761" d="M1745.29,1864.43a3.4,3.4,0,1,0,3.4,3.4,3.4,3.4,0,0,0-3.4-3.4Z" transform="translate(-1865.993 540.299)" fill="#fff" opacity="0.1"/>
    <path id="Path_762" data-name="Path 762" d="M1755.48,1864.43a3.4,3.4,0,1,0,2.407.994A3.4,3.4,0,0,0,1755.48,1864.43Z" transform="translate(-1857.566 540.299)" fill="#fff" opacity="0.1"/>
    <path id="Path_763" data-name="Path 763" d="M1765.66,1864.43a3.4,3.4,0,1,0,3.4,3.4A3.4,3.4,0,0,0,1765.66,1864.43Z" transform="translate(-1849.136 540.299)" fill="#fff" opacity="0.1"/>
    <path id="Path_764" data-name="Path 764" d="M1775.84,1864.43a3.4,3.4,0,1,0,3.4,3.4A3.4,3.4,0,0,0,1775.84,1864.43Z" transform="translate(-1840.706 540.299)" fill="#fff" opacity="0.1"/>
    <path id="Path_765" data-name="Path 765" d="M1786.03,1864.43a3.4,3.4,0,1,0,2.407.994A3.4,3.4,0,0,0,1786.03,1864.43Z" transform="translate(-1832.278 540.299)" fill="#fff" opacity="0.1"/>
    <path id="Path_766" data-name="Path 766" d="M1796.21,1864.43a3.4,3.4,0,1,0,3.4,3.4,3.4,3.4,0,0,0-3.4-3.4Z" transform="translate(-1823.848 540.299)" fill="#fff" opacity="0.1"/>
    <path id="Path_767" data-name="Path 767" d="M1806.39,1864.43a3.4,3.4,0,1,0,3.4,3.4,3.4,3.4,0,0,0-3.4-3.4Z" transform="translate(-1815.418 540.299)" fill="#fff" opacity="0.1"/>
    <path id="Path_778" data-name="Path 778" d="M1713.54,1873.3a3.272,3.272,0,0,0-.726.082q2.017,1.952,4.081,3.86a3.476,3.476,0,0,0,.042-.541,3.4,3.4,0,0,0-3.4-3.4Z" transform="translate(-1890.07 547.641)" fill="#fff" opacity="0.1"/>
    <path id="Path_779" data-name="Path 779" d="M1724.93,1873.3a3.4,3.4,0,1,0,3.4,3.4,3.4,3.4,0,0,0-3.4-3.4Z" transform="translate(-1882.853 547.641)" fill="#fff" opacity="0.1"/>
    <path id="Path_780" data-name="Path 780" d="M1735.11,1873.3a3.4,3.4,0,1,0,3.4,3.4A3.4,3.4,0,0,0,1735.11,1873.3Z" transform="translate(-1874.423 547.641)" fill="#fff" opacity="0.1"/>
    <path id="Path_781" data-name="Path 781" d="M1745.29,1873.3a3.4,3.4,0,1,0,3.4,3.4,3.4,3.4,0,0,0-3.4-3.4Z" transform="translate(-1865.993 547.641)" fill="#fff" opacity="0.1"/>
    <path id="Path_782" data-name="Path 782" d="M1755.48,1873.3a3.4,3.4,0,1,0,2.407.994A3.4,3.4,0,0,0,1755.48,1873.3Z" transform="translate(-1857.566 547.641)" fill="#fff" opacity="0.1"/>
    <path id="Path_783" data-name="Path 783" d="M1765.66,1873.3a3.4,3.4,0,1,0,3.4,3.4A3.4,3.4,0,0,0,1765.66,1873.3Z" transform="translate(-1849.136 547.641)" fill="#fff" opacity="0.1"/>
    <path id="Path_784" data-name="Path 784" d="M1775.84,1873.3a3.4,3.4,0,1,0,3.4,3.4A3.4,3.4,0,0,0,1775.84,1873.3Z" transform="translate(-1840.706 547.641)" fill="#fff" opacity="0.1"/>
    <path id="Path_785" data-name="Path 785" d="M1786.03,1873.3a3.4,3.4,0,1,0,3.4,3.4A3.4,3.4,0,0,0,1786.03,1873.3Z" transform="translate(-1832.278 547.641)" fill="#fff" opacity="0.1"/>
    <path id="Path_786" data-name="Path 786" d="M1796.21,1873.3a3.4,3.4,0,1,0,3.4,3.4,3.4,3.4,0,0,0-3.4-3.4Z" transform="translate(-1823.848 547.641)" fill="#fff" opacity="0.1"/>
    <path id="Path_787" data-name="Path 787" d="M1806.39,1873.3a3.4,3.4,0,1,0,3.4,3.4,3.4,3.4,0,0,0-3.4-3.4Z" transform="translate(-1815.418 547.641)" fill="#fff" opacity="0.1"/>
    <path id="Path_798" data-name="Path 798" d="M1723.99,1882.17c-.292,0-.229.039-.5.11,1.4,1.12.936,2.223,4.591,3.312v-.02C1728.08,1883.7,1725.87,1882.17,1723.99,1882.17Z" transform="translate(-1881.23 554.983)" fill="#fff" opacity="0.1"/>
    <path id="Path_799" data-name="Path 799" d="M1735.11,1882.17a3.4,3.4,0,1,0,3.4,3.4A3.4,3.4,0,0,0,1735.11,1882.17Z" transform="translate(-1874.423 554.983)" fill="#fff" opacity="0.1"/>
    <path id="Path_800" data-name="Path 800" d="M1745.29,1882.17a3.4,3.4,0,1,0,3.4,3.4,3.4,3.4,0,0,0-3.4-3.4Z" transform="translate(-1865.993 554.983)" fill="#fff" opacity="0.1"/>
    <path id="Path_801" data-name="Path 801" d="M1755.48,1882.17a3.4,3.4,0,1,0,2.407.994A3.4,3.4,0,0,0,1755.48,1882.17Z" transform="translate(-1857.566 554.983)" fill="#fff" opacity="0.1"/>
    <path id="Path_802" data-name="Path 802" d="M1765.66,1882.17a3.4,3.4,0,1,0,3.4,3.4A3.4,3.4,0,0,0,1765.66,1882.17Z" transform="translate(-1849.136 554.983)" fill="#fff" opacity="0.1"/>
    <path id="Path_803" data-name="Path 803" d="M1775.84,1882.17a3.4,3.4,0,1,0,3.4,3.4A3.4,3.4,0,0,0,1775.84,1882.17Z" transform="translate(-1840.706 554.983)" fill="#fff" opacity="0.1"/>
    <path id="Path_804" data-name="Path 804" d="M1786.03,1882.17a3.4,3.4,0,1,0,2.407.994A3.4,3.4,0,0,0,1786.03,1882.17Z" transform="translate(-1832.278 554.983)" fill="#fff" opacity="0.1"/>
    <path id="Path_805" data-name="Path 805" d="M1796.21,1882.17a3.4,3.4,0,1,0,3.4,3.4,3.4,3.4,0,0,0-3.4-3.4Z" transform="translate(-1823.848 554.983)" fill="#fff" opacity="0.1"/>
    <path id="Path_806" data-name="Path 806" d="M1806.39,1882.17a3.4,3.4,0,1,0,3.4,3.4,3.4,3.4,0,0,0-3.4-3.4Z" transform="translate(-1815.418 554.983)" fill="#fff" opacity="0.1"/>
    <path id="Path_816" data-name="Path 816" d="M1745.29,1891.04a3.4,3.4,0,1,0,3.4,3.4,3.4,3.4,0,0,0-3.4-3.4Z" transform="translate(-1865.993 562.324)" fill="#fff" opacity="0.1"/>
    <path id="Path_817" data-name="Path 817" d="M1755.48,1891.04a3.4,3.4,0,1,0,2.407.994A3.4,3.4,0,0,0,1755.48,1891.04Z" transform="translate(-1857.566 562.324)" fill="#fff" opacity="0.1"/>
    <path id="Path_818" data-name="Path 818" d="M1765.66,1891.04a3.4,3.4,0,1,0,3.4,3.4A3.4,3.4,0,0,0,1765.66,1891.04Z" transform="translate(-1849.136 562.324)" fill="#fff" opacity="0.1"/>
    <path id="Path_819" data-name="Path 819" d="M1775.84,1891.04a3.4,3.4,0,1,0,3.4,3.4A3.4,3.4,0,0,0,1775.84,1891.04Z" transform="translate(-1840.706 562.324)" fill="#fff" opacity="0.1"/>
    <circle id="Ellipse_7" data-name="Ellipse 7" cx="3.403" cy="3.403" r="3.403" transform="translate(-49.656 2453.362)" fill="#fff" opacity="0.1"/>
    <path id="Path_820" data-name="Path 820" d="M1796.21,1891.04a3.4,3.4,0,1,0,3.4,3.4,3.4,3.4,0,0,0-3.4-3.4Z" transform="translate(-1823.848 562.324)" fill="#fff" opacity="0.1"/>
    <path id="Path_821" data-name="Path 821" d="M1806.39,1891.04a3.4,3.4,0,1,0,3.4,3.4,3.4,3.4,0,0,0-3.4-3.4Z" transform="translate(-1815.418 562.324)" fill="#fff" opacity="0.1"/>
    <path id="Path_828" data-name="Path 828" d="M1754.97,1899.91a3.38,3.38,0,0,0-2.289.894q2.83,1.269,5.688,2.477A3.4,3.4,0,0,0,1754.97,1899.91Z" transform="translate(-1857.062 569.666)" fill="#fff" opacity="0.1"/>
    <path id="Path_829" data-name="Path 829" d="M1765.66,1899.91a3.4,3.4,0,1,0,3.4,3.4A3.4,3.4,0,0,0,1765.66,1899.91Z" transform="translate(-1849.136 569.666)" fill="#fff" opacity="0.1"/>
    <path id="Path_830" data-name="Path 830" d="M1775.84,1899.91a3.4,3.4,0,1,0,3.4,3.4A3.4,3.4,0,0,0,1775.84,1899.91Z" transform="translate(-1840.706 569.666)" fill="#fff" opacity="0.1"/>
    <path id="Path_831" data-name="Path 831" d="M1786.03,1899.91a3.4,3.4,0,1,0,2.407.994A3.4,3.4,0,0,0,1786.03,1899.91Z" transform="translate(-1832.278 569.666)" fill="#fff" opacity="0.1"/>
    <path id="Path_832" data-name="Path 832" d="M1796.21,1899.91a3.4,3.4,0,1,0,3.4,3.4,3.4,3.4,0,0,0-3.4-3.4Z" transform="translate(-1823.848 569.666)" fill="#fff" opacity="0.1"/>
    <path id="Path_833" data-name="Path 833" d="M1806.39,1899.91a3.4,3.4,0,1,0,3.4,3.4,3.4,3.4,0,0,0-3.4-3.4Z" transform="translate(-1815.418 569.666)" fill="#fff" opacity="0.1"/>
    <path id="Path_840" data-name="Path 840" d="M1785.93,1908.78a3.407,3.407,0,0,0-3.19,2.224q3.282.65,6.589,1.214l.005-.033a3.407,3.407,0,0,0-3.4-3.4Z" transform="translate(-1832.181 577.007)" fill="#fff" opacity="0.1"/>
    <path id="Path_841" data-name="Path 841" d="M1796.21,1908.78a3.4,3.4,0,1,0,3.395,3.4,3.4,3.4,0,0,0-3.395-3.4Z" transform="translate(-1823.848 577.007)" fill="#fff" opacity="0.1"/>
    <path id="Path_842" data-name="Path 842" d="M1806.39,1908.78a3.4,3.4,0,1,0,2.406,1,3.4,3.4,0,0,0-2.406-1Z" transform="translate(-1815.418 577.007)" fill="#fff" opacity="0.1"/>
  </g>
</svg>
