<svg xmlns="http://www.w3.org/2000/svg" width="511.952" height="512.026" viewBox="0 0 511.952 512.026">
  <path id="phone-solid" d="M511.2,387,487.95,487.8a31.081,31.081,0,0,1-30.46,24.22C205.2,512,0,306.8,0,54.5A31.064,31.064,0,0,1,24.22,24.05L125.02.8A31.383,31.383,0,0,1,160.8,18.92l46.52,108.5a31.3,31.3,0,0,1-8.98,36.45L144.5,207.1A349.658,349.658,0,0,0,304,366.6l44.08-53.8a31.108,31.108,0,0,1,36.47-8.975l108.5,46.51C506.1,357.2,514.6,372.4,511.2,387Z" transform="translate(0 0.006)" fill="#fff"/>
</svg>
